<?xml version="1.0" encoding="UTF-8"?>
<svg width="512px" height="512px" viewBox="0 0 512 512" version="1.1" xmlns="http://www.w3.org/2000/svg" xmlns:xlink="http://www.w3.org/1999/xlink">
    <!-- Generator: Sketch 52.3 (67297) - http://www.bohemiancoding.com/sketch -->
    <title>android-chrome-512x512</title>
    <desc>Created with Sketch.</desc>
    <g id="android-chrome-512x512" stroke="none" stroke-width="1" fill="none" fill-rule="evenodd">
        <g id="logo-typo-dark" transform="translate(26.000000, 26.000000)" fill="#1976D2">
            <path d="M230,0 C102.975719,0 0,102.976994 0,230.002849 C0,303.648212 34.6652626,369.161412 88.5180872,411.258316 L88.5180872,230.002849 C88.5180872,151.866847 151.859267,88.5134851 230,88.5134851 C308.140733,88.5134851 371.481913,151.866847 371.481913,230.002849 C371.481913,308.138852 308.140733,371.480816 230,371.480816 C207.860505,371.480816 186.912042,366.386105 168.25446,357.319342 L168.25446,451.543007 C187.909316,457.013838 208.601338,460 230,460 C357.024281,460 460,357.017307 460,230.002849 C460,102.976994 357.024281,0 230,0" id="Fill-1"></path>
            <path d="M230.002863,311 L232.951694,307.467448 C254.841757,282.158419 285,247.448243 285,222.726074 C285,207.427843 279.08516,193.89019 269.041955,183.88509 C258.975847,173.87999 245.382593,168 230.002863,168 C214.623133,168 201.018427,173.87999 190.963771,183.88509 C180.920566,193.89019 175,207.427843 175,222.726074 C175,247.448243 205.163969,282.158419 227.04258,307.467448 L230.002863,311" id="Fill-10"></path>
        </g>
    </g>
</svg>