<svg width="135" height="35" viewBox="0 0 135 35" fill="none" xmlns="http://www.w3.org/2000/svg">
<g clip-path="url(#clip0)">
<path d="M113.275 5.51284C113.275 3.95511 112.044 2.69232 110.525 2.69232C109.006 2.69232 107.775 3.95511 107.775 5.51284C107.775 7.07056 109.006 8.33335 110.525 8.33335C112.043 8.33148 113.273 7.06979 113.275 5.51284ZM110.525 7.20514C109.614 7.20514 108.875 6.44747 108.875 5.51284C108.875 4.5782 109.614 3.82053 110.525 3.82053C111.436 3.82053 112.175 4.5782 112.175 5.51284C112.175 6.44747 111.436 7.20514 110.525 7.20514Z" fill="black"/>
<path d="M130.875 5.51284C130.875 3.95511 129.644 2.69232 128.125 2.69232C126.606 2.69232 125.375 3.95511 125.375 5.51284C125.375 7.07056 126.606 8.33335 128.125 8.33335C129.643 8.33148 130.873 7.06979 130.875 5.51284ZM128.125 7.20514C127.214 7.20514 126.475 6.44747 126.475 5.51284C126.475 4.5782 127.214 3.82053 128.125 3.82053C129.036 3.82053 129.775 4.5782 129.775 5.51284C129.775 6.44747 129.036 7.20514 128.125 7.20514Z" fill="black"/>
<path d="M120.425 1H119.325C118.718 1 118.225 1.50511 118.225 2.1282V33.7179C118.225 34.341 118.718 34.8461 119.325 34.8461H120.425C121.033 34.8461 121.525 34.341 121.525 33.7179V2.1282C121.525 1.50511 121.033 1 120.425 1ZM119.325 33.7179V2.1282H120.425V33.7179H119.325Z" fill="black"/>
<path d="M130.875 8.33331H125.375C123.553 8.33518 122.077 9.84943 122.075 11.7179V18.7692C122.074 19.4462 122.413 20.0762 122.971 20.4369C123.53 20.7977 124.23 20.8388 124.825 20.5456V31.7436C124.827 32.545 125.301 33.2659 126.024 33.568C126.748 33.8702 127.578 33.6936 128.125 33.1211C128.672 33.6936 129.502 33.8702 130.226 33.568C130.949 33.2659 131.423 32.545 131.425 31.7436V20.5456C132.02 20.8388 132.72 20.7977 133.279 20.4369C133.837 20.0762 134.176 19.4462 134.175 18.7692V11.7179C134.173 9.84943 132.697 8.33518 130.875 8.33331ZM126.75 32.5897C126.294 32.5897 125.925 32.2109 125.925 31.7436V21.8718H127.575V31.7436C127.575 32.2109 127.206 32.5897 126.75 32.5897ZM130.325 31.7436C130.325 32.2109 129.956 32.5897 129.5 32.5897C129.044 32.5897 128.675 32.2109 128.675 31.7436V21.8718H130.325V31.7436ZM133.075 18.7692C133.075 19.2365 132.706 19.6154 132.25 19.6154C131.794 19.6154 131.425 19.2365 131.425 18.7692V11.7179C131.425 11.4064 131.179 11.1538 130.875 11.1538C130.571 11.1538 130.325 11.4064 130.325 11.7179V20.7436H125.925V11.7179C125.925 11.4064 125.679 11.1538 125.375 11.1538C125.071 11.1538 124.825 11.4064 124.825 11.7179V18.7692C124.825 19.2365 124.456 19.6154 124 19.6154C123.544 19.6154 123.175 19.2365 123.175 18.7692V11.7179C123.175 10.4717 124.16 9.46152 125.375 9.46152H130.875C132.09 9.46152 133.075 10.4717 133.075 11.7179V18.7692Z" fill="black"/>
<path d="M115.69 9.9647C115.416 9.00133 114.556 8.33768 113.578 8.33331H108.303C106.833 8.33999 105.542 9.33671 105.129 10.7838L103.155 17.83C102.863 18.8758 103.451 19.9668 104.47 20.2697C104.755 20.3556 105.057 20.3717 105.35 20.3165L104.695 22.6931C104.601 23.0338 104.669 23.3999 104.877 23.6819C105.086 23.9639 105.411 24.1291 105.757 24.1282H107.225V31.7436C107.223 32.5467 107.697 33.2707 108.422 33.5737C109.147 33.8768 109.979 33.6984 110.525 33.1228C110.531 33.1284 110.534 33.1352 110.539 33.1409C111.09 33.7053 111.918 33.8739 112.637 33.5681C113.357 33.2622 113.825 32.5421 113.825 31.7436V24.1282H115.294C115.639 24.1291 115.964 23.9639 116.173 23.682C116.381 23.4002 116.449 23.0342 116.355 22.6937L115.695 20.3171C115.988 20.373 116.289 20.3572 116.575 20.2709C117.066 20.1266 117.481 19.7882 117.728 19.3302C117.976 18.8723 118.036 18.3322 117.895 17.8289L115.69 9.9647ZM109.15 32.5897C108.931 32.5909 108.72 32.5022 108.565 32.3432C108.41 32.1843 108.324 31.9684 108.325 31.7436L108.325 24.1282H109.975V31.7436C109.975 32.2109 109.606 32.5897 109.15 32.5897ZM112.725 31.7436C112.725 32.2109 112.356 32.5897 111.9 32.5897C111.444 32.5897 111.075 32.2109 111.075 31.7436V24.1282H112.725V31.7436ZM116.272 19.1872C115.834 19.3144 115.378 19.0559 115.25 18.6079L113.275 11.5566C113.189 11.2609 112.887 11.0913 112.597 11.176C112.308 11.2608 112.139 11.5684 112.217 11.8663L115.294 23H107.775H107.769H105.752L108.832 11.8646C108.915 11.5652 108.745 11.2538 108.454 11.1685C108.405 11.1537 108.354 11.1463 108.302 11.1465C108.057 11.1468 107.842 11.3133 107.774 11.5549L105.801 18.6045C105.676 19.0547 105.219 19.3158 104.78 19.1878C104.341 19.0597 104.087 18.591 104.212 18.1408L106.186 11.0974C106.461 10.1318 107.322 9.46647 108.303 9.46152H113.578C114.067 9.46389 114.496 9.79571 114.633 10.2772L116.838 18.1397C116.899 18.3556 116.873 18.5874 116.767 18.784C116.661 18.9805 116.483 19.1256 116.272 19.1872Z" fill="black"/>
</g>
<rect width="41.7822" height="2.50693" rx="1.25347" transform="matrix(0.6981 -0.716 0.6981 0.716 102.825 31.7622)" fill="#B80000"/>
<g clip-path="url(#clip1)">
<path d="M32.605 12.4855L8.31497 3.48649C8.00428 3.37168 7.65911 3.53055 7.54455 3.84148C7.5443 3.84174 7.5443 3.84199 7.54405 3.84224L4.85514 11.1615C4.74084 11.4724 4.90021 11.8173 5.21114 11.9316H5.21165L8.0272 12.9654L7.40683 14.6555C7.29278 14.9665 7.45215 15.3109 7.76309 15.4252L13.3952 17.493L12.9813 18.6196C12.6051 19.6287 12.9561 20.7647 13.8363 21.3853V24.4469H5.76403C5.37328 23.5536 4.57366 22.905 3.6187 22.7071V21.4473C3.6187 21.116 3.35031 20.8473 3.01873 20.8473H0.599969C0.268639 20.8473 0 21.116 0 21.4473V31.046C0 31.3776 0.268639 31.646 0.599969 31.646H3.01873C3.35031 31.646 3.6187 31.3776 3.6187 31.046V29.7864C4.57366 29.5883 5.37328 28.94 5.76403 28.0464H13.8363V28.6464C13.8363 29.6404 14.642 30.4463 15.6359 30.4463C16.6299 30.4463 17.4359 29.6404 17.4359 28.6464V22.0004C17.9812 21.73 18.4024 21.261 18.6124 20.6895L19.0263 19.5628L24.0949 21.4226C24.1611 21.447 24.2309 21.4594 24.3014 21.4594C24.5529 21.4594 24.778 21.3025 24.8648 21.0664L25.0897 20.4538C27.0419 20.8211 28.9221 19.5363 29.2892 17.5844C29.4249 16.863 29.3368 16.1176 29.0367 15.4478L32.6735 13.5805C32.9683 13.4294 33.0849 13.0679 32.9338 12.773C32.8654 12.6391 32.749 12.5359 32.608 12.4838L32.605 12.4855ZM15.036 21.9319L15.5327 22.112C15.7588 22.193 15.996 22.2396 16.2359 22.2499V24.4469H15.036V21.9319ZM2.41901 30.4463H1.19994V22.0473H2.41901V30.4463ZM4.81863 26.8468C4.81763 27.6091 4.33725 28.2886 3.6187 28.5439V23.9496C4.33725 24.2047 4.81763 24.8842 4.81863 25.6468V26.8468ZM6.0372 25.6468H16.2359V26.8468H6.0372V25.6468ZM15.6359 29.2464C15.3046 29.2464 15.036 28.9777 15.036 28.6464V28.0464H16.2359V28.6464C16.2359 28.9777 15.9673 29.2464 15.6359 29.2464ZM17.9001 19.1496L17.4862 20.2763C17.2576 20.8977 16.5685 21.2164 15.9466 20.9883L14.8182 20.5749C14.1963 20.3465 13.8771 19.6572 14.1054 19.0351C14.1054 19.0351 14.1054 19.0351 14.1054 19.0348L14.5196 17.9089L17.5605 19.0253L17.9001 19.1496ZM23.9456 20.0915L8.73971 14.5077L9.15387 13.3811L18.1642 16.6898C18.3775 16.7674 18.6167 16.7188 18.7826 16.5637L20.4662 14.9788L25.1864 16.7125L23.9456 20.0915ZM28.0019 17.7468C27.6217 18.7717 26.5993 19.4122 25.5114 19.3067L26.4384 16.7815L27.9526 16.0017C28.1895 16.5561 28.2071 17.18 28.0019 17.7468ZM25.9769 15.6724C25.9452 15.6752 25.9137 15.6807 25.8828 15.689L20.5339 13.725C20.3206 13.6467 20.0815 13.6953 19.9158 13.8509L18.2302 15.436L6.18826 11.0139L8.46276 4.82087L30.9096 13.1371L25.9769 15.6724Z" fill="black"/>
<path d="M11.1071 11.5416L11.5205 10.4152L12.6469 10.8288L12.2333 11.9552L11.1071 11.5416Z" fill="black"/>
<path d="M13.3596 12.3687L13.7731 11.2422L14.8995 11.6559L14.4858 12.7821L13.3596 12.3687Z" fill="black"/>
<path d="M15.6123 13.1962L16.0259 12.0698L17.1521 12.4835L16.7384 13.6099L15.6123 13.1962Z" fill="black"/>
</g>
<path d="M79.8972 27.6173H80.2608C80.5315 27.6173 80.7509 27.3978 80.7509 27.1272V24.9708C80.7509 24.7001 80.5315 24.4807 80.2608 24.4807H78.6887L79.0434 21.4572C79.0749 21.1883 78.8825 20.9448 78.6137 20.9134C78.345 20.8815 78.1014 21.0742 78.0699 21.343L77.7018 24.4807H75.8057L76.2399 20.2856C76.2542 20.1476 76.2094 20.01 76.1164 19.9069C76.0234 19.8039 75.8912 19.7451 75.7524 19.7451H74.3316C74.0072 18.6749 73.512 17.672 72.8737 16.7724L77.3011 17.2115C77.6304 17.2442 77.9259 17.4041 78.1332 17.6619C78.3404 17.9196 78.4336 18.2424 78.395 18.571L78.2412 19.8815C78.2097 20.1503 78.4021 20.3938 78.6709 20.4253C78.6903 20.4277 78.7096 20.4288 78.7286 20.4288C78.9737 20.4288 79.1855 20.2451 79.2147 19.9957L79.3685 18.6852C79.438 18.0933 79.2704 17.5117 78.8968 17.0474C78.5232 16.5832 77.9908 16.295 77.3978 16.2362L71.9996 15.7007C71.6703 15.348 71.3159 15.018 70.9386 14.7136L69.6687 8.51869C70.8796 7.67164 71.6737 6.26786 71.6737 4.68128C71.6736 2.09994 69.5737 0 66.9924 0C64.4113 0 62.3113 2.09994 62.3113 4.68116C62.3113 6.06457 62.915 7.30929 63.8722 8.16697L63.5583 9.39247C63.4426 9.84429 63.3496 10.3015 63.2784 10.762L61.9373 7.26972C61.6669 6.56537 60.9782 6.09209 60.2237 6.09209C59.6547 6.09209 59.1275 6.3492 58.7772 6.79747C58.4269 7.24574 58.3048 7.81943 58.4423 8.37147L59.7452 13.6022C58.6957 14.1495 57.7391 14.8797 56.921 15.7708C55.176 17.6712 54.215 20.1397 54.215 22.7215C54.215 28.389 58.8259 32.9998 64.4933 32.9998C68.3898 32.9998 71.7868 30.8207 73.5296 27.6172H75.3093C74.7603 28.1892 74.4218 28.9647 74.4218 29.8183C74.4218 31.5726 75.849 32.9999 77.6033 32.9999C79.3576 32.9999 80.7849 31.5727 80.7849 29.8183C80.7848 28.9648 80.4463 28.1893 79.8972 27.6173ZM75.2089 20.7252L74.8203 24.4807H74.6212C74.7202 23.9089 74.7724 23.3212 74.7724 22.7215C74.7724 22.0416 74.7049 21.3738 74.5763 20.7252H75.2089V20.7252ZM69.771 13.8985C69.0736 13.4807 68.3196 13.1418 67.5193 12.8959V11.211C67.5193 10.9403 67.2998 10.7208 67.0292 10.7208C66.7585 10.7208 66.5391 10.9403 66.5391 11.211V19.3462H64.0888V12.9824C64.0888 12.979 64.0888 12.9755 64.0888 12.9721V12.9627C64.0888 11.8413 64.2299 10.7219 64.5081 9.63566L64.7282 8.77637C65.3996 9.14923 66.1714 9.36231 66.9924 9.36231C67.6211 9.36231 68.2209 9.23689 68.7691 9.01117L69.771 13.8985ZM66.539 20.3264V21.2576C66.539 21.9331 65.9893 22.4827 65.3138 22.4827C64.6382 22.4827 64.0886 21.9331 64.0886 21.2576V20.3264H64.0886H66.539ZM63.2915 4.68116C63.2915 2.64044 64.9517 0.980201 66.9924 0.980201C69.0332 0.980201 70.6935 2.64044 70.6935 4.68116C70.6935 6.72187 69.0332 8.38211 66.9924 8.38211C64.9517 8.38211 63.2915 6.72187 63.2915 4.68116ZM59.3935 8.13467C59.3294 7.87738 59.3863 7.61003 59.5495 7.40107C59.7128 7.19218 59.9585 7.07236 60.2236 7.07236C60.5752 7.07236 60.8962 7.29292 61.0222 7.62111L62.9198 12.5625C62.1375 12.6828 61.377 12.8925 60.6514 13.1849L59.3935 8.13467ZM64.4934 32.0197C59.3664 32.0197 55.1953 27.8485 55.1953 22.7215C55.1953 20.3859 56.0646 18.1529 57.643 16.4338C58.4643 15.5393 59.4398 14.8242 60.5128 14.3154C60.5236 14.3106 60.5343 14.3055 60.5446 14.3001C61.3523 13.9209 62.2149 13.659 63.1085 13.5255V14.7784C61.114 15.1261 59.293 16.2325 58.0614 17.8595C57.898 18.0754 57.9405 18.3828 58.1563 18.5462C58.2448 18.6131 58.3487 18.6455 58.4518 18.6455C58.6 18.6455 58.7466 18.5786 58.8429 18.4512C59.8905 17.0673 61.4228 16.1121 63.1085 15.7754V21.2577C63.1085 22.4737 64.0979 23.4631 65.3139 23.4631C66.5299 23.4631 67.5193 22.4737 67.5193 21.2577V16.3174C69.9714 17.4773 71.5757 19.968 71.5757 22.7217C71.5757 26.6269 68.3986 29.804 64.4935 29.804C60.5883 29.804 57.4113 26.6269 57.4113 22.7217C57.4113 21.6853 57.6298 20.6867 58.061 19.7538C58.1746 19.5081 58.0674 19.2168 57.8217 19.1033C57.5759 18.9898 57.2847 19.0968 57.1712 19.3426C56.68 20.4053 56.431 21.5422 56.431 22.7217C56.431 27.1674 60.0478 30.7842 64.4934 30.7842C68.9391 30.7842 72.5558 27.1674 72.5558 22.7217C72.5558 19.4328 70.5458 16.4724 67.5192 15.2467V13.9267C71.2433 15.2052 73.7922 18.7336 73.7922 22.7217C73.7922 27.8485 69.6208 32.0197 64.4934 32.0197ZM73.9967 26.6371C74.1543 26.2559 74.2897 25.8633 74.4011 25.4608H79.7708V26.6371H77.6121C77.6091 26.6371 77.6062 26.6369 77.6033 26.6369C77.6003 26.6369 77.5974 26.6371 77.5945 26.6371H73.9967ZM77.6033 32.0197C76.3895 32.0197 75.402 31.0322 75.402 29.8183C75.402 28.6075 76.3847 27.622 77.5945 27.6172H77.612C78.8218 27.622 79.8046 28.6075 79.8046 29.8183C79.8046 31.0322 78.8171 32.0197 77.6033 32.0197Z" fill="black"/>
<path d="M77.6033 28.3623C76.8005 28.3623 76.1472 29.0155 76.1472 29.8184C76.1472 30.6212 76.8005 31.2745 77.6033 31.2745C78.4062 31.2745 79.0594 30.6213 79.0594 29.8184C79.0594 29.0155 78.4062 28.3623 77.6033 28.3623ZM77.6033 30.2943C77.3408 30.2943 77.1274 30.0808 77.1274 29.8184C77.1274 29.5559 77.3409 29.3425 77.6033 29.3425C77.8657 29.3425 78.0792 29.556 78.0792 29.8184C78.0792 30.0808 77.8657 30.2943 77.6033 30.2943Z" fill="black"/>
<defs>
<clipPath id="clip0">
<rect x="102" y="1" width="33" height="33.8461" fill="white"/>
</clipPath>
<clipPath id="clip1">
<rect y="1" width="33" height="33" fill="white"/>
</clipPath>
</defs>
</svg>