<svg width="177" height="90" viewBox="0 0 177 90" fill="none" xmlns="http://www.w3.org/2000/svg">
<path d="M3 15C3 12.2386 5.23858 10 8 10H20V90H3V15Z" fill="#90A4AE"/>
<path d="M0 85C0 82.2386 2.23858 80 5 80H20V90H0V85Z" fill="#90A4AE"/>
<path d="M36.6667 15C36.6667 12.2386 34.4281 10 31.6667 10H20V90H36.6667V15Z" fill="#78909C"/>
<path d="M40 85C40 82.2386 37.7614 80 35 80H20V90H40V85Z" fill="#78909C"/>
<rect x="10" y="24" width="167" height="18" fill="#E53935"/>
<rect x="10" y="33" width="167" height="9" fill="#C62828"/>
<circle cx="21" cy="33" r="6" fill="white"/>
<rect x="10" y="42" width="26" height="4" fill="#78909C"/>
<path fill-rule="evenodd" clip-rule="evenodd" d="M68.8297 24L50.8297 42H62.1434L80.1434 24H68.8297Z" fill="#FAFAFA"/>
<path fill-rule="evenodd" clip-rule="evenodd" d="M45 24L27 42H38.3137L56.3137 24H45Z" fill="#FAFAFA"/>
<path fill-rule="evenodd" clip-rule="evenodd" d="M93 24L75 42H86.3137L104.314 24H93Z" fill="#FAFAFA"/>
<path fill-rule="evenodd" clip-rule="evenodd" d="M117 24L99 42H110.314L128.314 24H117Z" fill="#FAFAFA"/>
<path fill-rule="evenodd" clip-rule="evenodd" d="M141 24L123 42H134.314L152.314 24H141Z" fill="#FAFAFA"/>
<path fill-rule="evenodd" clip-rule="evenodd" d="M165 24L147 42H158.314L176.314 24H165Z" fill="#FAFAFA"/>
<mask id="path-15-inside-1" fill="white">
<path fill-rule="evenodd" clip-rule="evenodd" d="M74 19.799L74.0876 19.7114V19.5876H74.2114L93.5876 0.21142V0.0875702H93.7114L93.799 0L93.8866 0.0875702H121.289L121.376 0L121.464 0.0875702H121.588V0.211411L140.964 19.5876H141.088V19.7114L141.175 19.799L141.088 19.8866V47.2886L141.175 47.3762L141.088 47.4637V47.5876H140.964L121.588 66.9637V67.0876H121.464L121.376 67.1751L121.289 67.0876H93.8866L93.799 67.1751L93.7114 67.0876H93.5876V66.9637L74.2114 47.5876H74.0876V47.4637L74 47.3762L74.0876 47.2886V19.8866L74 19.799Z"/>
</mask>
<path fill-rule="evenodd" clip-rule="evenodd" d="M74 19.799L74.0876 19.7114V19.5876H74.2114L93.5876 0.21142V0.0875702H93.7114L93.799 0L93.8866 0.0875702H121.289L121.376 0L121.464 0.0875702H121.588V0.211411L140.964 19.5876H141.088V19.7114L141.175 19.799L141.088 19.8866V47.2886L141.175 47.3762L141.088 47.4637V47.5876H140.964L121.588 66.9637V67.0876H121.464L121.376 67.1751L121.289 67.0876H93.8866L93.799 67.1751L93.7114 67.0876H93.5876V66.9637L74.2114 47.5876H74.0876V47.4637L74 47.3762L74.0876 47.2886V19.8866L74 19.799Z" fill="white"/>
<path d="M74.0876 19.7114L74.7947 20.4185L75.0876 20.1256V19.7114H74.0876ZM74 19.799L73.2929 19.0919L72.5858 19.799L73.2929 20.5061L74 19.799ZM74.0876 19.5876V18.5876H73.0876V19.5876H74.0876ZM74.2114 19.5876V20.5876H74.6256L74.9185 20.2947L74.2114 19.5876ZM93.5876 0.21142L94.2947 0.918527L94.5876 0.625634V0.21142H93.5876ZM93.5876 0.0875702V-0.91243H92.5876V0.0875702H93.5876ZM93.7114 0.0875702V1.08757H94.1256L94.4185 0.794677L93.7114 0.0875702ZM93.799 0L94.5061 -0.707107L93.799 -1.41421L93.0919 -0.707107L93.799 0ZM93.8866 0.0875702L93.1795 0.794677L93.4723 1.08757H93.8866V0.0875702ZM121.289 0.0875702V1.08757H121.703L121.996 0.794677L121.289 0.0875702ZM121.376 0L122.083 -0.707107L121.376 -1.41421L120.669 -0.707107L121.376 0ZM121.464 0.0875702L120.757 0.794677L121.05 1.08757H121.464V0.0875702ZM121.588 0.0875702H122.588V-0.91243H121.588V0.0875702ZM121.588 0.211411H120.588V0.625624L120.88 0.918517L121.588 0.211411ZM140.964 19.5876L140.257 20.2947L140.55 20.5876H140.964V19.5876ZM141.088 19.5876H142.088V18.5876H141.088V19.5876ZM141.088 19.7114H140.088V20.1256L140.38 20.4185L141.088 19.7114ZM141.175 19.799L141.882 20.5061L142.589 19.799L141.882 19.0919L141.175 19.799ZM141.088 19.8866L140.38 19.1795L140.088 19.4724V19.8866H141.088ZM141.088 47.2886H140.088V47.7028L140.38 47.9957L141.088 47.2886ZM141.175 47.3762L141.882 48.0833L142.589 47.3762L141.882 46.669L141.175 47.3762ZM141.088 47.4637L140.38 46.7566L140.088 47.0495V47.4637H141.088ZM141.088 47.5876V48.5876H142.088V47.5876H141.088ZM140.964 47.5876V46.5876H140.55L140.257 46.8805L140.964 47.5876ZM121.588 66.9637L120.88 66.2566L120.588 66.5495V66.9637H121.588ZM121.588 67.0876V68.0876H122.588V67.0876H121.588ZM121.464 67.0876V66.0876H121.05L120.757 66.3805L121.464 67.0876ZM121.376 67.1751L120.669 67.8822L121.376 68.5894L122.083 67.8822L121.376 67.1751ZM121.289 67.0876L121.996 66.3805L121.703 66.0876H121.289V67.0876ZM93.8866 67.0876V66.0876H93.4724L93.1795 66.3805L93.8866 67.0876ZM93.799 67.1751L93.0919 67.8822L93.799 68.5894L94.5061 67.8822L93.799 67.1751ZM93.7114 67.0876L94.4185 66.3805L94.1256 66.0876H93.7114V67.0876ZM93.5876 67.0876H92.5876V68.0876H93.5876V67.0876ZM93.5876 66.9637H94.5876V66.5495L94.2947 66.2566L93.5876 66.9637ZM74.2114 47.5876L74.9185 46.8805L74.6256 46.5876H74.2114V47.5876ZM74.0876 47.5876H73.0876V48.5876H74.0876V47.5876ZM74.0876 47.4637H75.0876V47.0495L74.7947 46.7566L74.0876 47.4637ZM74 47.3762L73.2929 46.669L72.5858 47.3762L73.2929 48.0833L74 47.3762ZM74.0876 47.2886L74.7947 47.9957L75.0876 47.7028V47.2886H74.0876ZM74.0876 19.8866H75.0876V19.4723L74.7947 19.1795L74.0876 19.8866ZM73.3805 19.0043L73.2929 19.0919L74.7071 20.5061L74.7947 20.4185L73.3805 19.0043ZM73.0876 19.5876V19.7114H75.0876V19.5876H73.0876ZM74.2114 18.5876H74.0876V20.5876H74.2114V18.5876ZM92.8805 -0.495687L73.5043 18.8805L74.9185 20.2947L94.2947 0.918527L92.8805 -0.495687ZM92.5876 0.0875702V0.21142H94.5876V0.0875702H92.5876ZM93.7114 -0.91243H93.5876V1.08757H93.7114V-0.91243ZM93.0919 -0.707107L93.0043 -0.619537L94.4185 0.794677L94.5061 0.707107L93.0919 -0.707107ZM94.5937 -0.619537L94.5061 -0.707107L93.0919 0.707107L93.1795 0.794677L94.5937 -0.619537ZM121.289 -0.91243H93.8866V1.08757H121.289V-0.91243ZM121.996 0.794677L122.083 0.707107L120.669 -0.707107L120.581 -0.619537L121.996 0.794677ZM120.669 0.707107L120.757 0.794677L122.171 -0.619537L122.083 -0.707107L120.669 0.707107ZM121.588 -0.91243H121.464V1.08757H121.588V-0.91243ZM122.588 0.211411V0.0875702H120.588V0.211411H122.588ZM120.88 0.918517L140.257 20.2947L141.671 18.8805L122.295 -0.495696L120.88 0.918517ZM141.088 18.5876H140.964V20.5876H141.088V18.5876ZM142.088 19.7114V19.5876H140.088V19.7114H142.088ZM140.38 20.4185L140.468 20.5061L141.882 19.0919L141.795 19.0043L140.38 20.4185ZM140.468 19.0919L140.38 19.1795L141.795 20.5937L141.882 20.5061L140.468 19.0919ZM142.088 47.2886V19.8866H140.088V47.2886H142.088ZM141.882 46.669L141.795 46.5815L140.38 47.9957L140.468 48.0833L141.882 46.669ZM141.795 48.1708L141.882 48.0833L140.468 46.669L140.38 46.7566L141.795 48.1708ZM142.088 47.5876V47.4637H140.088V47.5876H142.088ZM140.964 48.5876H141.088V46.5876H140.964V48.5876ZM122.295 67.6708L141.671 48.2947L140.257 46.8805L120.88 66.2566L122.295 67.6708ZM122.588 67.0876V66.9637H120.588V67.0876H122.588ZM121.464 68.0876H121.588V66.0876H121.464V68.0876ZM122.083 67.8822L122.171 67.7947L120.757 66.3805L120.669 66.468L122.083 67.8822ZM120.581 67.7947L120.669 67.8822L122.083 66.468L121.996 66.3805L120.581 67.7947ZM93.8866 68.0876H121.289V66.0876H93.8866V68.0876ZM93.1795 66.3805L93.0919 66.468L94.5061 67.8822L94.5937 67.7947L93.1795 66.3805ZM94.5061 66.468L94.4185 66.3805L93.0043 67.7947L93.0919 67.8822L94.5061 66.468ZM93.5876 68.0876H93.7114V66.0876H93.5876V68.0876ZM92.5876 66.9637V67.0876H94.5876V66.9637H92.5876ZM94.2947 66.2566L74.9185 46.8805L73.5043 48.2947L92.8805 67.6708L94.2947 66.2566ZM74.0876 48.5876H74.2114V46.5876H74.0876V48.5876ZM73.0876 47.4637V47.5876H75.0876V47.4637H73.0876ZM74.7947 46.7566L74.7071 46.669L73.2929 48.0833L73.3805 48.1708L74.7947 46.7566ZM74.7071 48.0833L74.7947 47.9957L73.3805 46.5815L73.2929 46.669L74.7071 48.0833ZM73.0876 19.8866V47.2886H75.0876V19.8866H73.0876ZM73.2929 20.5061L73.3805 20.5937L74.7947 19.1795L74.7071 19.0919L73.2929 20.5061Z" fill="#E0E0E0" mask="url(#path-15-inside-1)"/>
<path fill-rule="evenodd" clip-rule="evenodd" d="M77.5 20.9842L77.5782 20.906V20.7954H77.6888L94.9954 3.48882V3.37821H95.106L95.1842 3.29999L95.2624 3.37821H119.738L119.816 3.29999L119.894 3.37821H120.005V3.48883L137.311 20.7954H137.422V20.906L137.5 20.9842L137.422 21.0624V45.5375L137.5 45.6158L137.422 45.694V45.8046H137.311L120.005 63.1111V63.2218H119.894L119.816 63.3L119.738 63.2218H95.2624L95.1842 63.3L95.106 63.2218H94.9954V63.1111L77.6888 45.8046H77.5782V45.694L77.5 45.6158L77.5782 45.5376V21.0624L77.5 20.9842Z" fill="#E53935"/>
<path fill-rule="evenodd" clip-rule="evenodd" d="M86.5 54.6158L95.3465 63.4623V63.5729H95.4571L95.5354 63.6511L95.6136 63.5729H120.089L120.167 63.6511L120.245 63.5729H120.356V63.4623L137.662 46.1558H137.773V46.0451L137.851 45.9669L137.773 45.8887V21.4136L137.851 21.3353L137.773 21.2571V21.1465H137.662L128.816 12.3L86.5 54.6158Z" fill="#C62828"/>
<path d="M84.7162 38.12V34.232L92.0842 23.72H97.2442V34.04H99.0922V38.12H97.2442V41H92.4922V38.12H84.7162ZM92.8522 29.024L89.5402 34.04H92.8522V29.024ZM101.022 31.976C101.022 29.224 101.582 27.056 102.702 25.472C103.822 23.888 105.582 23.096 107.982 23.096C110.382 23.096 112.142 23.888 113.262 25.472C114.398 27.056 114.966 29.224 114.966 31.976C114.966 34.76 114.406 36.944 113.286 38.528C112.166 40.112 110.398 40.904 107.982 40.904C105.566 40.904 103.798 40.112 102.678 38.528C101.574 36.944 101.022 34.76 101.022 31.976ZM110.31 31.976C110.31 30.536 110.158 29.44 109.854 28.688C109.55 27.92 108.926 27.536 107.982 27.536C107.038 27.536 106.414 27.92 106.11 28.688C105.806 29.44 105.654 30.536 105.654 31.976C105.654 33.448 105.798 34.568 106.086 35.336C106.39 36.088 107.022 36.464 107.982 36.464C108.942 36.464 109.566 36.088 109.854 35.336C110.158 34.568 110.31 33.448 110.31 31.976ZM117.011 28.688C117.075 26.88 117.635 25.496 118.691 24.536C119.747 23.56 121.219 23.072 123.107 23.072C124.339 23.072 125.387 23.288 126.251 23.72C127.131 24.136 127.795 24.712 128.243 25.448C128.691 26.168 128.915 26.984 128.915 27.896C128.915 28.984 128.651 29.856 128.123 30.512C127.595 31.152 126.995 31.584 126.323 31.808V31.904C128.259 32.624 129.227 34 129.227 36.032C129.227 37.04 128.995 37.928 128.531 38.696C128.067 39.464 127.395 40.064 126.515 40.496C125.635 40.928 124.587 41.144 123.371 41.144C121.371 41.144 119.787 40.664 118.619 39.704C117.467 38.728 116.867 37.24 116.819 35.24H121.403C121.371 35.88 121.507 36.376 121.811 36.728C122.115 37.08 122.571 37.256 123.179 37.256C123.643 37.256 124.003 37.112 124.259 36.824C124.531 36.536 124.667 36.152 124.667 35.672C124.667 35.064 124.467 34.616 124.067 34.328C123.683 34.04 123.051 33.896 122.171 33.896H121.331V30.08H122.147C122.755 30.096 123.267 30 123.683 29.792C124.115 29.568 124.331 29.128 124.331 28.472C124.331 27.976 124.211 27.608 123.971 27.368C123.731 27.112 123.403 26.984 122.987 26.984C122.523 26.984 122.179 27.152 121.955 27.488C121.747 27.808 121.627 28.208 121.595 28.688H117.011Z" fill="white"/>
</svg>
