<svg width="177" height="90" viewBox="0 0 177 90" fill="none" xmlns="http://www.w3.org/2000/svg">
<path d="M3 15C3 12.2386 5.23858 10 8 10H20V90H3V15Z" fill="#90A4AE"/>
<path d="M0 85C0 82.2386 2.23858 80 5 80H20V90H0V85Z" fill="#90A4AE"/>
<path d="M36.6667 15C36.6667 12.2386 34.4281 10 31.6667 10H20V90H36.6667V15Z" fill="#78909C"/>
<path d="M40 85C40 82.2386 37.7614 80 35 80H20V90H40V85Z" fill="#78909C"/>
<rect x="10" y="24" width="167" height="18" fill="#E53935"/>
<rect x="10" y="33" width="167" height="9" fill="#C62828"/>
<circle cx="21" cy="33" r="6" fill="white"/>
<rect x="10" y="42" width="26" height="4" fill="#78909C"/>
<path fill-rule="evenodd" clip-rule="evenodd" d="M68.8297 24L50.8297 42H62.1434L80.1434 24H68.8297Z" fill="#FAFAFA"/>
<path fill-rule="evenodd" clip-rule="evenodd" d="M45 24L27 42H38.3137L56.3137 24H45Z" fill="#FAFAFA"/>
<path fill-rule="evenodd" clip-rule="evenodd" d="M93 24L75 42H86.3137L104.314 24H93Z" fill="#FAFAFA"/>
<path fill-rule="evenodd" clip-rule="evenodd" d="M117 24L99 42H110.314L128.314 24H117Z" fill="#FAFAFA"/>
<path fill-rule="evenodd" clip-rule="evenodd" d="M141 24L123 42H134.314L152.314 24H141Z" fill="#FAFAFA"/>
<path fill-rule="evenodd" clip-rule="evenodd" d="M165 24L147 42H158.314L176.314 24H165Z" fill="#FAFAFA"/>
<mask id="path-15-inside-1" fill="white">
<path fill-rule="evenodd" clip-rule="evenodd" d="M74 19.799L74.0876 19.7114V19.5876H74.2114L93.5876 0.21142V0.0875702H93.7114L93.799 0L93.8866 0.0875702H121.289L121.376 0L121.464 0.0875702H121.588V0.211411L140.964 19.5876H141.088V19.7114L141.175 19.799L141.088 19.8866V47.2886L141.175 47.3762L141.088 47.4637V47.5876H140.964L121.588 66.9637V67.0876H121.464L121.376 67.1751L121.289 67.0876H93.8866L93.799 67.1751L93.7114 67.0876H93.5876V66.9637L74.2114 47.5876H74.0876V47.4637L74 47.3762L74.0876 47.2886V19.8866L74 19.799Z"/>
</mask>
<path fill-rule="evenodd" clip-rule="evenodd" d="M74 19.799L74.0876 19.7114V19.5876H74.2114L93.5876 0.21142V0.0875702H93.7114L93.799 0L93.8866 0.0875702H121.289L121.376 0L121.464 0.0875702H121.588V0.211411L140.964 19.5876H141.088V19.7114L141.175 19.799L141.088 19.8866V47.2886L141.175 47.3762L141.088 47.4637V47.5876H140.964L121.588 66.9637V67.0876H121.464L121.376 67.1751L121.289 67.0876H93.8866L93.799 67.1751L93.7114 67.0876H93.5876V66.9637L74.2114 47.5876H74.0876V47.4637L74 47.3762L74.0876 47.2886V19.8866L74 19.799Z" fill="white"/>
<path d="M74.0876 19.7114L74.7947 20.4185L75.0876 20.1256V19.7114H74.0876ZM74 19.799L73.2929 19.0919L72.5858 19.799L73.2929 20.5061L74 19.799ZM74.0876 19.5876V18.5876H73.0876V19.5876H74.0876ZM74.2114 19.5876V20.5876H74.6256L74.9185 20.2947L74.2114 19.5876ZM93.5876 0.21142L94.2947 0.918527L94.5876 0.625634V0.21142H93.5876ZM93.5876 0.0875702V-0.91243H92.5876V0.0875702H93.5876ZM93.7114 0.0875702V1.08757H94.1256L94.4185 0.794677L93.7114 0.0875702ZM93.799 0L94.5061 -0.707107L93.799 -1.41421L93.0919 -0.707107L93.799 0ZM93.8866 0.0875702L93.1795 0.794677L93.4723 1.08757H93.8866V0.0875702ZM121.289 0.0875702V1.08757H121.703L121.996 0.794677L121.289 0.0875702ZM121.376 0L122.083 -0.707107L121.376 -1.41421L120.669 -0.707107L121.376 0ZM121.464 0.0875702L120.757 0.794677L121.05 1.08757H121.464V0.0875702ZM121.588 0.0875702H122.588V-0.91243H121.588V0.0875702ZM121.588 0.211411H120.588V0.625624L120.88 0.918517L121.588 0.211411ZM140.964 19.5876L140.257 20.2947L140.55 20.5876H140.964V19.5876ZM141.088 19.5876H142.088V18.5876H141.088V19.5876ZM141.088 19.7114H140.088V20.1256L140.38 20.4185L141.088 19.7114ZM141.175 19.799L141.882 20.5061L142.589 19.799L141.882 19.0919L141.175 19.799ZM141.088 19.8866L140.38 19.1795L140.088 19.4724V19.8866H141.088ZM141.088 47.2886H140.088V47.7028L140.38 47.9957L141.088 47.2886ZM141.175 47.3762L141.882 48.0833L142.589 47.3762L141.882 46.669L141.175 47.3762ZM141.088 47.4637L140.38 46.7566L140.088 47.0495V47.4637H141.088ZM141.088 47.5876V48.5876H142.088V47.5876H141.088ZM140.964 47.5876V46.5876H140.55L140.257 46.8805L140.964 47.5876ZM121.588 66.9637L120.88 66.2566L120.588 66.5495V66.9637H121.588ZM121.588 67.0876V68.0876H122.588V67.0876H121.588ZM121.464 67.0876V66.0876H121.05L120.757 66.3805L121.464 67.0876ZM121.376 67.1751L120.669 67.8822L121.376 68.5894L122.083 67.8822L121.376 67.1751ZM121.289 67.0876L121.996 66.3805L121.703 66.0876H121.289V67.0876ZM93.8866 67.0876V66.0876H93.4724L93.1795 66.3805L93.8866 67.0876ZM93.799 67.1751L93.0919 67.8822L93.799 68.5894L94.5061 67.8822L93.799 67.1751ZM93.7114 67.0876L94.4185 66.3805L94.1256 66.0876H93.7114V67.0876ZM93.5876 67.0876H92.5876V68.0876H93.5876V67.0876ZM93.5876 66.9637H94.5876V66.5495L94.2947 66.2566L93.5876 66.9637ZM74.2114 47.5876L74.9185 46.8805L74.6256 46.5876H74.2114V47.5876ZM74.0876 47.5876H73.0876V48.5876H74.0876V47.5876ZM74.0876 47.4637H75.0876V47.0495L74.7947 46.7566L74.0876 47.4637ZM74 47.3762L73.2929 46.669L72.5858 47.3762L73.2929 48.0833L74 47.3762ZM74.0876 47.2886L74.7947 47.9957L75.0876 47.7028V47.2886H74.0876ZM74.0876 19.8866H75.0876V19.4723L74.7947 19.1795L74.0876 19.8866ZM73.3805 19.0043L73.2929 19.0919L74.7071 20.5061L74.7947 20.4185L73.3805 19.0043ZM73.0876 19.5876V19.7114H75.0876V19.5876H73.0876ZM74.2114 18.5876H74.0876V20.5876H74.2114V18.5876ZM92.8805 -0.495687L73.5043 18.8805L74.9185 20.2947L94.2947 0.918527L92.8805 -0.495687ZM92.5876 0.0875702V0.21142H94.5876V0.0875702H92.5876ZM93.7114 -0.91243H93.5876V1.08757H93.7114V-0.91243ZM93.0919 -0.707107L93.0043 -0.619537L94.4185 0.794677L94.5061 0.707107L93.0919 -0.707107ZM94.5937 -0.619537L94.5061 -0.707107L93.0919 0.707107L93.1795 0.794677L94.5937 -0.619537ZM121.289 -0.91243H93.8866V1.08757H121.289V-0.91243ZM121.996 0.794677L122.083 0.707107L120.669 -0.707107L120.581 -0.619537L121.996 0.794677ZM120.669 0.707107L120.757 0.794677L122.171 -0.619537L122.083 -0.707107L120.669 0.707107ZM121.588 -0.91243H121.464V1.08757H121.588V-0.91243ZM122.588 0.211411V0.0875702H120.588V0.211411H122.588ZM120.88 0.918517L140.257 20.2947L141.671 18.8805L122.295 -0.495696L120.88 0.918517ZM141.088 18.5876H140.964V20.5876H141.088V18.5876ZM142.088 19.7114V19.5876H140.088V19.7114H142.088ZM140.38 20.4185L140.468 20.5061L141.882 19.0919L141.795 19.0043L140.38 20.4185ZM140.468 19.0919L140.38 19.1795L141.795 20.5937L141.882 20.5061L140.468 19.0919ZM142.088 47.2886V19.8866H140.088V47.2886H142.088ZM141.882 46.669L141.795 46.5815L140.38 47.9957L140.468 48.0833L141.882 46.669ZM141.795 48.1708L141.882 48.0833L140.468 46.669L140.38 46.7566L141.795 48.1708ZM142.088 47.5876V47.4637H140.088V47.5876H142.088ZM140.964 48.5876H141.088V46.5876H140.964V48.5876ZM122.295 67.6708L141.671 48.2947L140.257 46.8805L120.88 66.2566L122.295 67.6708ZM122.588 67.0876V66.9637H120.588V67.0876H122.588ZM121.464 68.0876H121.588V66.0876H121.464V68.0876ZM122.083 67.8822L122.171 67.7947L120.757 66.3805L120.669 66.468L122.083 67.8822ZM120.581 67.7947L120.669 67.8822L122.083 66.468L121.996 66.3805L120.581 67.7947ZM93.8866 68.0876H121.289V66.0876H93.8866V68.0876ZM93.1795 66.3805L93.0919 66.468L94.5061 67.8822L94.5937 67.7947L93.1795 66.3805ZM94.5061 66.468L94.4185 66.3805L93.0043 67.7947L93.0919 67.8822L94.5061 66.468ZM93.5876 68.0876H93.7114V66.0876H93.5876V68.0876ZM92.5876 66.9637V67.0876H94.5876V66.9637H92.5876ZM94.2947 66.2566L74.9185 46.8805L73.5043 48.2947L92.8805 67.6708L94.2947 66.2566ZM74.0876 48.5876H74.2114V46.5876H74.0876V48.5876ZM73.0876 47.4637V47.5876H75.0876V47.4637H73.0876ZM74.7947 46.7566L74.7071 46.669L73.2929 48.0833L73.3805 48.1708L74.7947 46.7566ZM74.7071 48.0833L74.7947 47.9957L73.3805 46.5815L73.2929 46.669L74.7071 48.0833ZM73.0876 19.8866V47.2886H75.0876V19.8866H73.0876ZM73.2929 20.5061L73.3805 20.5937L74.7947 19.1795L74.7071 19.0919L73.2929 20.5061Z" fill="#E0E0E0" mask="url(#path-15-inside-1)"/>
<path fill-rule="evenodd" clip-rule="evenodd" d="M77.5 20.9842L77.5782 20.906V20.7954H77.6888L94.9954 3.48883V3.37822H95.106L95.1842 3.3L95.2624 3.37822H119.738L119.816 3.30001L119.894 3.37822H120.005V3.48884L137.311 20.7954H137.422V20.906L137.5 20.9842L137.422 21.0624V45.5376L137.5 45.6158L137.422 45.694V45.8046H137.311L120.005 63.1112V63.2218H119.894L119.816 63.3L119.738 63.2218H95.2624L95.1842 63.3L95.106 63.2218H94.9954V63.1112L77.6888 45.8046H77.5782V45.694L77.5 45.6158L77.5782 45.5376V21.0624L77.5 20.9842Z" fill="#E53935"/>
<path fill-rule="evenodd" clip-rule="evenodd" d="M86.5 54.6158L95.3465 63.4623V63.5729H95.4571L95.5354 63.6511L95.6136 63.5729H120.089L120.167 63.6511L120.245 63.5729H120.356V63.4623L137.662 46.1558H137.773V46.0452L137.851 45.9669L137.773 45.8887V21.4136L137.851 21.3354L137.773 21.2571V21.1465H137.662L128.816 12.3L86.5 54.6158Z" fill="#C62828"/>
<path d="M97.0673 27.608H89.8673V30.272C90.1713 29.952 90.5873 29.696 91.1153 29.504C91.6433 29.312 92.2273 29.216 92.8673 29.216C94.0193 29.216 94.9793 29.48 95.7473 30.008C96.5313 30.536 97.1073 31.232 97.4753 32.096C97.8433 32.96 98.0273 33.904 98.0273 34.928C98.0273 36.816 97.4913 38.304 96.4193 39.392C95.3473 40.464 93.8593 41 91.9553 41C90.6273 41 89.4753 40.776 88.4993 40.328C87.5393 39.864 86.8033 39.224 86.2913 38.408C85.7793 37.592 85.5153 36.656 85.4993 35.6H90.0833C90.1313 35.968 90.2913 36.288 90.5633 36.56C90.8353 36.832 91.2353 36.968 91.7633 36.968C92.3233 36.968 92.7473 36.776 93.0353 36.392C93.3233 36.008 93.4673 35.496 93.4673 34.856C93.4673 34.232 93.3153 33.76 93.0113 33.44C92.7073 33.104 92.2673 32.936 91.6913 32.936C91.2593 32.936 90.9073 33.048 90.6353 33.272C90.3793 33.48 90.2273 33.744 90.1793 34.064H85.5953V23.456H97.0673V27.608ZM100.026 31.976C100.026 29.224 100.586 27.056 101.706 25.472C102.826 23.888 104.586 23.096 106.986 23.096C109.386 23.096 111.146 23.888 112.266 25.472C113.402 27.056 113.97 29.224 113.97 31.976C113.97 34.76 113.41 36.944 112.29 38.528C111.17 40.112 109.402 40.904 106.986 40.904C104.57 40.904 102.802 40.112 101.682 38.528C100.578 36.944 100.026 34.76 100.026 31.976ZM109.314 31.976C109.314 30.536 109.162 29.44 108.858 28.688C108.554 27.92 107.93 27.536 106.986 27.536C106.042 27.536 105.418 27.92 105.114 28.688C104.81 29.44 104.658 30.536 104.658 31.976C104.658 33.448 104.802 34.568 105.09 35.336C105.394 36.088 106.026 36.464 106.986 36.464C107.946 36.464 108.57 36.088 108.858 35.336C109.162 34.568 109.314 33.448 109.314 31.976ZM115.799 31.976C115.799 29.224 116.359 27.056 117.479 25.472C118.599 23.888 120.359 23.096 122.759 23.096C125.159 23.096 126.919 23.888 128.039 25.472C129.175 27.056 129.743 29.224 129.743 31.976C129.743 34.76 129.183 36.944 128.063 38.528C126.943 40.112 125.175 40.904 122.759 40.904C120.343 40.904 118.575 40.112 117.455 38.528C116.351 36.944 115.799 34.76 115.799 31.976ZM125.087 31.976C125.087 30.536 124.935 29.44 124.631 28.688C124.327 27.92 123.703 27.536 122.759 27.536C121.815 27.536 121.191 27.92 120.887 28.688C120.583 29.44 120.431 30.536 120.431 31.976C120.431 33.448 120.575 34.568 120.863 35.336C121.167 36.088 121.799 36.464 122.759 36.464C123.719 36.464 124.343 36.088 124.631 35.336C124.935 34.568 125.087 33.448 125.087 31.976Z" fill="white"/>
</svg>
