<svg width="33" height="34" viewBox="0 0 33 34" fill="none" xmlns="http://www.w3.org/2000/svg">
<g clip-path="url(#clip0)">
<path d="M11.275 4.51284C11.275 2.95511 10.0438 1.69232 8.52502 1.69232C7.00624 1.69232 5.77502 2.95511 5.77502 4.51284C5.77502 6.07056 7.00624 7.33335 8.52502 7.33335C10.043 7.33148 11.2732 6.06979 11.275 4.51284ZM8.52502 6.20514C7.61375 6.20514 6.87502 5.44747 6.87502 4.51284C6.87502 3.5782 7.61375 2.82053 8.52502 2.82053C9.43629 2.82053 10.175 3.5782 10.175 4.51284C10.175 5.44747 9.43629 6.20514 8.52502 6.20514Z" fill="black"/>
<path d="M28.8751 4.51284C28.8751 2.95511 27.6438 1.69232 26.1251 1.69232C24.6063 1.69232 23.3751 2.95511 23.3751 4.51284C23.3751 6.07056 24.6063 7.33335 26.1251 7.33335C27.6431 7.33148 28.8732 6.06979 28.8751 4.51284ZM26.1251 6.20514C25.2138 6.20514 24.4751 5.44747 24.4751 4.51284C24.4751 3.5782 25.2138 2.82053 26.1251 2.82053C27.0363 2.82053 27.7751 3.5782 27.7751 4.51284C27.7751 5.44747 27.0363 6.20514 26.1251 6.20514Z" fill="black"/>
<path d="M18.4251 0H17.3251C16.7176 0 16.2251 0.505114 16.2251 1.1282V32.7179C16.2251 33.341 16.7176 33.8461 17.3251 33.8461H18.4251C19.0326 33.8461 19.5251 33.341 19.5251 32.7179V1.1282C19.5251 0.505114 19.0326 0 18.4251 0ZM17.3251 32.7179V1.1282H18.4251V32.7179H17.3251Z" fill="black"/>
<path d="M28.875 7.33331H23.375C21.5533 7.33518 20.0769 8.84943 20.075 10.7179V17.7692C20.0743 18.4462 20.4128 19.0762 20.9714 19.4369C21.5299 19.7977 22.2301 19.8388 22.825 19.5456V30.7436C22.8267 31.545 23.3006 32.2659 24.0244 32.568C24.7481 32.8702 25.5782 32.6936 26.125 32.1211C26.6719 32.6936 27.502 32.8702 28.2257 32.568C28.9495 32.2659 29.4234 31.545 29.425 30.7436V19.5456C30.02 19.8388 30.7202 19.7977 31.2787 19.4369C31.8373 19.0762 32.1758 18.4462 32.175 17.7692V10.7179C32.1732 8.84943 30.6968 7.33518 28.875 7.33331ZM24.75 31.5897C24.2944 31.5897 23.925 31.2109 23.925 30.7436V20.8718H25.575V30.7436C25.575 31.2109 25.2057 31.5897 24.75 31.5897ZM28.325 30.7436C28.325 31.2109 27.9557 31.5897 27.5 31.5897C27.0444 31.5897 26.675 31.2109 26.675 30.7436V20.8718H28.325V30.7436ZM31.075 17.7692C31.075 18.2365 30.7057 18.6154 30.25 18.6154C29.7944 18.6154 29.425 18.2365 29.425 17.7692V10.7179C29.425 10.4064 29.1788 10.1538 28.875 10.1538C28.5713 10.1538 28.325 10.4064 28.325 10.7179V19.7436H23.925V10.7179C23.925 10.4064 23.6788 10.1538 23.375 10.1538C23.0713 10.1538 22.825 10.4064 22.825 10.7179V17.7692C22.825 18.2365 22.4557 18.6154 22 18.6154C21.5444 18.6154 21.175 18.2365 21.175 17.7692V10.7179C21.175 9.47175 22.16 8.46152 23.375 8.46152H28.875C30.0901 8.46152 31.075 9.47175 31.075 10.7179V17.7692Z" fill="black"/>
<path d="M13.6901 8.9647C13.4155 8.00133 12.5561 7.33768 11.5775 7.33331H6.30304C4.83297 7.33999 3.54194 8.33671 3.12898 9.78377L1.15503 16.83C0.863065 17.8758 1.45087 18.9668 2.46953 19.2697C2.75527 19.3556 3.05666 19.3717 3.34953 19.3165L2.69503 21.6931C2.60115 22.0338 2.6686 22.3999 2.87721 22.6819C3.08582 22.9639 3.41139 23.1291 3.75653 23.1282H5.22503V30.7436C5.22329 31.5467 5.69672 32.2707 6.42188 32.5737C7.14704 32.8768 7.97898 32.6984 8.52504 32.1228C8.53054 32.1284 8.53384 32.1352 8.53934 32.1409C9.09008 32.7053 9.91811 32.8739 10.6373 32.5681C11.3566 32.2622 11.8253 31.5421 11.825 30.7436V23.1282H13.2935C13.6386 23.1291 13.964 22.9639 14.1726 22.682C14.3812 22.4002 14.4487 22.0342 14.355 21.6937L13.695 19.3171C13.9878 19.373 14.2894 19.3572 14.575 19.2709C15.0658 19.1266 15.4806 18.7882 15.7282 18.3302C15.9757 17.8723 16.0357 17.3322 15.895 16.8289L13.6901 8.9647ZM7.15003 31.5897C6.93087 31.5909 6.72035 31.5022 6.56537 31.3432C6.4104 31.1843 6.32386 30.9684 6.32504 30.7436L6.32502 23.1282H7.97504V30.7436C7.97504 31.2109 7.60567 31.5897 7.15003 31.5897ZM10.725 30.7436C10.725 31.2109 10.3557 31.5897 9.90004 31.5897C9.4444 31.5897 9.07504 31.2109 9.07504 30.7436V23.1282H10.725V30.7436ZM14.272 18.1872C13.8341 18.3144 13.378 18.0559 13.2501 17.6079L11.275 10.5566C11.1887 10.2609 10.8866 10.0913 10.5972 10.176C10.3078 10.2608 10.1385 10.5684 10.2174 10.8663L13.2935 22H5.77503H5.76899H3.75213L6.83214 10.8646C6.91474 10.5652 6.74545 10.2538 6.45374 10.1685C6.40461 10.1537 6.35367 10.1463 6.30248 10.1465C6.05743 10.1468 5.84212 10.3133 5.77448 10.5549L3.80108 17.6045C3.67624 18.0547 3.21921 18.3158 2.78028 18.1878C2.34136 18.0597 2.08674 17.591 2.21158 17.1408L4.18553 10.0974C4.46092 9.1318 5.32212 8.46647 6.30304 8.46152H11.5775C12.0666 8.46389 12.4959 8.79571 12.633 9.27721L14.8385 17.1397C14.899 17.3556 14.8733 17.5874 14.7671 17.784C14.6608 17.9805 14.4827 18.1256 14.272 18.1872Z" fill="black"/>
</g>
<rect width="41.7822" height="2.50693" rx="1.25347" transform="matrix(0.6981 -0.716 0.6981 0.716 0.824738 30.7622)" fill="#B80000"/>
<defs>
<clipPath id="clip0">
<rect width="33" height="33.8461" fill="white"/>
</clipPath>
</defs>
</svg>
