<svg width="33" height="33" viewBox="0 0 33 33" fill="none" xmlns="http://www.w3.org/2000/svg">
<g clip-path="url(#clip0)">
<path d="M32.605 11.4855L8.31497 2.48649C8.00428 2.37168 7.65911 2.53055 7.54455 2.84148C7.5443 2.84174 7.5443 2.84199 7.54405 2.84224L4.85514 10.1615C4.74084 10.4724 4.90021 10.8173 5.21114 10.9316H5.21165L8.0272 11.9654L7.40683 13.6555C7.29278 13.9665 7.45215 14.3109 7.76309 14.4252L13.3952 16.493L12.9813 17.6196C12.6051 18.6287 12.9561 19.7647 13.8363 20.3853V23.4469H5.76403C5.37328 22.5536 4.57366 21.905 3.6187 21.7071V20.4473C3.6187 20.116 3.35031 19.8473 3.01873 19.8473H0.599969C0.268639 19.8473 0 20.116 0 20.4473V30.046C0 30.3776 0.268639 30.646 0.599969 30.646H3.01873C3.35031 30.646 3.6187 30.3776 3.6187 30.046V28.7864C4.57366 28.5883 5.37328 27.94 5.76403 27.0464H13.8363V27.6464C13.8363 28.6404 14.642 29.4463 15.6359 29.4463C16.6299 29.4463 17.4359 28.6404 17.4359 27.6464V21.0004C17.9812 20.73 18.4024 20.261 18.6124 19.6895L19.0263 18.5628L24.0949 20.4226C24.1611 20.447 24.2309 20.4594 24.3014 20.4594C24.5529 20.4594 24.778 20.3025 24.8648 20.0664L25.0897 19.4538C27.0419 19.8211 28.9221 18.5363 29.2892 16.5844C29.4249 15.863 29.3368 15.1176 29.0367 14.4478L32.6735 12.5805C32.9683 12.4294 33.0849 12.0679 32.9338 11.773C32.8654 11.6391 32.749 11.5359 32.608 11.4838L32.605 11.4855ZM15.036 20.9319L15.5327 21.112C15.7588 21.193 15.996 21.2396 16.2359 21.2499V23.4469H15.036V20.9319ZM2.41901 29.4463H1.19994V21.0473H2.41901V29.4463ZM4.81863 25.8468C4.81763 26.6091 4.33725 27.2886 3.6187 27.5439V22.9496C4.33725 23.2047 4.81763 23.8842 4.81863 24.6468V25.8468ZM6.0372 24.6468H16.2359V25.8468H6.0372V24.6468ZM15.6359 28.2464C15.3046 28.2464 15.036 27.9777 15.036 27.6464V27.0464H16.2359V27.6464C16.2359 27.9777 15.9673 28.2464 15.6359 28.2464ZM17.9001 18.1496L17.4862 19.2763C17.2576 19.8977 16.5685 20.2164 15.9466 19.9883L14.8182 19.5749C14.1963 19.3465 13.8771 18.6572 14.1054 18.0351C14.1054 18.0351 14.1054 18.0351 14.1054 18.0348L14.5196 16.9089L17.5605 18.0253L17.9001 18.1496ZM23.9456 19.0915L8.73971 13.5077L9.15387 12.3811L18.1642 15.6898C18.3775 15.7674 18.6167 15.7188 18.7826 15.5637L20.4662 13.9788L25.1864 15.7125L23.9456 19.0915ZM28.0019 16.7468C27.6217 17.7717 26.5993 18.4122 25.5114 18.3067L26.4384 15.7815L27.9526 15.0017C28.1895 15.5561 28.2071 16.18 28.0019 16.7468ZM25.9769 14.6724C25.9452 14.6752 25.9137 14.6807 25.8828 14.689L20.5339 12.725C20.3206 12.6467 20.0815 12.6953 19.9158 12.8509L18.2302 14.436L6.18826 10.0139L8.46276 3.82087L30.9096 12.1371L25.9769 14.6724Z" fill="black"/>
<path d="M11.1071 10.5416L11.5205 9.41516L12.6469 9.82882L12.2333 10.9552L11.1071 10.5416Z" fill="black"/>
<path d="M13.3596 11.3687L13.7731 10.2422L14.8995 10.6559L14.4858 11.7821L13.3596 11.3687Z" fill="black"/>
<path d="M15.6123 12.1962L16.0259 11.0698L17.1521 11.4835L16.7384 12.6099L15.6123 12.1962Z" fill="black"/>
</g>
<defs>
<clipPath id="clip0">
<rect width="33" height="33" fill="white"/>
</clipPath>
</defs>
</svg>
