<svg width="168" height="168" viewBox="0 0 168 168" fill="none" xmlns="http://www.w3.org/2000/svg">
<rect x="37.6013" y="2" width="45.8382" height="18.516" rx="9.25799" transform="rotate(47.271 37.6013 2)" fill="#FC801C"/>
<rect x="48" y="27" width="36" height="21" fill="#FC801C"/>
<circle cx="66" cy="15" r="15" fill="#FFCEA2"/>
<path d="M3 73.5C3 71.0147 5.01472 69 7.5 69H15.5C17.9853 69 20 71.0147 20 73.5C20 75.9853 17.9853 78 15.5 78H7.5C5.01472 78 3 75.9853 3 73.5Z" fill="#37474F"/>
<path d="M13.4157 70.9296C15.3022 69.3116 18.1431 69.5293 19.7611 71.4157L30.1776 83.5605C31.7956 85.447 31.578 88.2879 29.6915 89.9059C27.8051 91.5239 24.9642 91.3063 23.3462 89.4198L12.9296 77.275C11.3116 75.3886 11.5293 72.5476 13.4157 70.9296Z" fill="#37474F"/>
<path d="M27.9241 66.5231C30.4867 55.1103 40.6199 47 52.3168 47H84V84H24L27.9241 66.5231Z" fill="#5BBDC8"/>
<path d="M34.7432 74.4918C36.9194 62.6213 47.265 54 59.3333 54H84V84H33L34.7432 74.4918Z" fill="#ECEFF1"/>
<path d="M14 144H50V156C50 162.627 44.6274 168 38 168H26C19.3726 168 14 162.627 14 156V144Z" fill="#37474F"/>
<path d="M0 109C0 95.1929 11.1929 84 25 84H84V144H5C2.23858 144 0 141.761 0 139V109Z" fill="#5BBDC8"/>
<circle cx="31.5" cy="119.5" r="14.5" fill="#FDD835"/>
<circle cx="31.5" cy="119.5" r="5.5" fill="#FFECB3"/>
<path d="M61 124C61 118.477 65.4772 114 71 114H84V144H61V124Z" fill="#ECEFF1"/>
<rect width="45.8382" height="18.516" rx="9.25799" transform="matrix(-0.678532 0.734571 0.734571 0.678532 130.399 2)" fill="#D4587A"/>
<rect width="36" height="21" transform="matrix(-1 0 0 1 120 27)" fill="#D4587A"/>
<circle r="15" transform="matrix(-1 0 0 1 102 15)" fill="#FFCEA2"/>
<path d="M165 73.5C165 71.0147 162.985 69 160.5 69H152.5C150.015 69 148 71.0147 148 73.5C148 75.9853 150.015 78 152.5 78H160.5C162.985 78 165 75.9853 165 73.5Z" fill="#37474F"/>
<path d="M154.584 70.9296C152.698 69.3116 149.857 69.5293 148.239 71.4157L137.822 83.5605C136.204 85.447 136.422 88.2879 138.308 89.9059C140.195 91.5239 143.036 91.3063 144.654 89.4198L155.07 77.275C156.688 75.3886 156.471 72.5476 154.584 70.9296Z" fill="#37474F"/>
<path d="M140.076 66.5231C137.513 55.1103 127.38 47 115.683 47H84V84H144L140.076 66.5231Z" fill="#5BBDC8"/>
<path d="M133.257 74.4918C131.081 62.6213 120.735 54 108.667 54H84V84H135L133.257 74.4918Z" fill="#CFD8DC"/>
<path d="M154 144H118V156C118 162.627 123.373 168 130 168H142C148.627 168 154 162.627 154 156V144Z" fill="#37474F"/>
<path d="M168 109C168 95.1929 156.807 84 143 84H84V144H163C165.761 144 168 141.761 168 139V109Z" fill="#5BBDC8"/>
<circle r="14.5" transform="matrix(-1 0 0 1 136.5 119.5)" fill="#FDD835"/>
<circle r="5.5" transform="matrix(-1 0 0 1 136.5 119.5)" fill="#FFECB3"/>
<path d="M107 124C107 118.477 102.523 114 97 114H84V144H107V124Z" fill="#CFD8DC"/>
</svg>
