<?xml version="1.0" encoding="UTF-8"?>
<svg width="498px" height="82px" viewBox="0 0 498 82" version="1.1" xmlns="http://www.w3.org/2000/svg" xmlns:xlink="http://www.w3.org/1999/xlink">
    <!-- Generator: Sketch 52.3 (67297) - http://www.bohemiancoding.com/sketch -->
    <title>logo-typo-dark</title>
    <desc>Created with Sketch.</desc>
    <g id="Page-1" stroke="none" stroke-width="1" fill="none" fill-rule="evenodd">
        <g id="parcandi-dark" transform="translate(-46.000000, -238.000000)" fill="#FFFFFF">
            <g id="logo-typo-dark" transform="translate(46.000000, 238.000000)">
                <g id="Group" transform="translate(112.000000, 17.000000)">
                    <path d="M11.5244146,22.8167053 L19.1625762,22.8167053 C24.2112005,22.8167053 27.1239432,20.3646988 27.1239432,15.7140156 C27.1239432,11.1238292 24.2112005,8.8003781 19.1625762,8.8003781 L11.5244146,8.8003781 L11.5244146,22.8167053 Z M19.7447354,0 C31.3314546,0 38,5.52977572 38,15.3378018 C38,25.6449257 31.3314546,31.6170834 19.7447354,31.6170834 L11.5244146,31.6170834 L11.5244146,44 L0,44 L0,0 L19.7447354,0 Z" id="Fill-2"></path>
                    <path d="M67.871785,11.1238292 L61.3318552,27.4068918 L74.2825358,27.4068918 L67.871785,11.1238292 Z M58.0001928,35.8915528 L54.7302279,44 L43,44 L62.3595033,0 L74.0916593,0 L93,44 L80.8205375,44 L77.6161262,35.8915528 L58.0001928,35.8915528 Z" id="Fill-3"></path>
                    <path d="M123.065548,22.8167053 C128.000964,22.8167053 130.885097,20.3646988 130.885097,15.7140156 C130.885097,11.1238292 128.000964,8.8003781 123.065548,8.8003781 L114.41122,8.8003781 L114.41122,22.8167053 L123.065548,22.8167053 Z M123.385579,31.6170834 L114.41122,31.6170834 L114.41122,44 L103,44 L103,0 L123.065548,0 C134.924041,0 141.717949,5.52977572 141.717949,15.3378018 C141.717949,22.0642777 138.831887,26.9021225 133.578369,29.4789035 L143,44 L130.052246,44 L123.385579,31.6170834 Z" id="Fill-4"></path>
                    <path d="M194.938061,7.43618366 L188.509522,15.126369 C185.639672,11.5987784 181.395898,9.39237574 177.527513,9.39237574 C170.599707,9.39237574 165.357398,14.9368155 165.357398,22.1853412 C165.357398,29.5589722 170.599707,35.1678602 177.527513,35.1678602 C181.210081,35.1678602 185.451978,33.1529065 188.509522,30.0006318 L195,36.9326032 C190.318898,41.7851727 183.392968,45 176.96443,45 C163.795779,45 154,35.2304128 154,22.312342 C154,9.5800337 164.04729,0 177.339819,0 C183.830297,0 190.570408,2.90016849 194.938061,7.43618366" id="Fill-5"></path>
                    <path d="M225.872754,11.1238292 L219.333076,27.4068918 L232.283257,27.4068918 L225.872754,11.1238292 Z M215.999614,35.8915528 L212.729776,44 L201,44 L220.358757,0 L232.09046,0 L251,44 L238.819079,44 L235.614791,35.8915528 L215.999614,35.8915528 Z" id="Fill-6"></path>
                    <polyline id="Fill-7" points="293.034404 44 272.599302 16.9088253 272.599302 44 262 44 262 0 271.965596 0 292.463687 27.1535619 292.463687 0 303 0 303 44 293.034404 44"></polyline>
                    <path d="M329.374045,35.0729569 L337.489029,35.0729569 C344.452965,35.0729569 349.433794,29.7927301 349.433794,22.0642777 C349.433794,14.2696571 344.195469,8.92515253 336.975957,8.92515253 L329.374045,8.92515253 L329.374045,35.0729569 Z M337.231532,0 C351.288153,0 361,8.92515253 361,22 C361,35.0105697 351.161326,44 336.783796,44 L318,44 L318,0 L337.231532,0 Z" id="Fill-8"></path>
                    <polygon id="Fill-9" points="375 44 386 44 386 0 375 0"></polygon>
                </g>
                <g id="logo-dark">
                    <path d="M40.631,0.922 C18.341,0.922 0.271,18.992 0.271,41.282 C0.271,54.205 6.354,65.701 15.804,73.088 L15.804,41.282 C15.804,27.571 26.919,16.454 40.631,16.454 C54.343,16.454 65.458,27.571 65.458,41.282 C65.458,54.993 54.343,66.108 40.631,66.108 C36.746,66.108 33.07,65.214 29.796,63.623 L29.796,80.157 C33.245,81.117 36.876,81.641 40.631,81.641 C62.921,81.641 80.991,63.57 80.991,41.282 C80.991,18.992 62.921,0.922 40.631,0.922" id="Fill-1"></path>
                    <path d="M40.631,55.546 L41.146,54.926 C44.969,50.484 50.236,44.392 50.236,40.053 C50.236,37.368 49.203,34.992 47.449,33.236 C45.691,31.48 43.317,30.448 40.631,30.448 C37.945,30.448 35.569,31.48 33.813,33.236 C32.059,34.992 31.025,37.368 31.025,40.053 C31.025,44.392 36.293,50.484 40.114,54.926 L40.631,55.546" id="Fill-10"></path>
                </g>
            </g>
        </g>
    </g>
</svg>