<svg width="323" height="46" viewBox="0 0 323 46" fill="none" xmlns="http://www.w3.org/2000/svg">
<path d="M17.7539 29.6758C17.7539 28.4258 17.3112 27.4622 16.4258 26.7852C15.5534 26.1081 13.9714 25.4245 11.6797 24.7344C9.38802 24.0443 7.5651 23.276 6.21094 22.4297C3.61979 20.8021 2.32422 18.6797 2.32422 16.0625C2.32422 13.7708 3.25521 11.8828 5.11719 10.3984C6.99219 8.91406 9.42057 8.17188 12.4023 8.17188C14.3815 8.17188 16.1458 8.53646 17.6953 9.26562C19.2448 9.99479 20.4622 11.0365 21.3477 12.3906C22.2331 13.7318 22.6758 15.2227 22.6758 16.8633H17.7539C17.7539 15.3789 17.2852 14.2201 16.3477 13.3867C15.4232 12.5404 14.0951 12.1172 12.3633 12.1172C10.7487 12.1172 9.49219 12.4622 8.59375 13.1523C7.70833 13.8424 7.26562 14.806 7.26562 16.043C7.26562 17.0846 7.7474 17.957 8.71094 18.6602C9.67448 19.3503 11.263 20.0273 13.4766 20.6914C15.6901 21.3424 17.4674 22.0911 18.8086 22.9375C20.1497 23.7708 21.1328 24.7344 21.7578 25.8281C22.3828 26.9089 22.6953 28.1784 22.6953 29.6367C22.6953 32.0065 21.7839 33.8945 19.9609 35.3008C18.151 36.694 15.6901 37.3906 12.5781 37.3906C10.5208 37.3906 8.6263 37.013 6.89453 36.2578C5.17578 35.4896 3.83464 34.4349 2.87109 33.0938C1.92057 31.7526 1.44531 30.1901 1.44531 28.4062H6.38672C6.38672 30.0208 6.92057 31.2708 7.98828 32.1562C9.05599 33.0417 10.5859 33.4844 12.5781 33.4844C14.2969 33.4844 15.5859 33.1393 16.4453 32.4492C17.3177 31.7461 17.7539 30.8216 17.7539 29.6758ZM31.1852 15.8672L31.3219 18.0742C32.8062 16.3424 34.8375 15.4766 37.4156 15.4766C40.2411 15.4766 42.1747 16.5573 43.2164 18.7188C44.7529 16.5573 46.9143 15.4766 49.7008 15.4766C52.0315 15.4766 53.7633 16.1211 54.8961 17.4102C56.0419 18.6992 56.6279 20.6003 56.6539 23.1133V37H51.9078V23.25C51.9078 21.9089 51.6148 20.9258 51.0289 20.3008C50.443 19.6758 49.4729 19.3633 48.1187 19.3633C47.038 19.3633 46.1526 19.6562 45.4625 20.2422C44.7854 20.8151 44.3102 21.5703 44.0367 22.5078L44.0562 37H39.3102V23.0938C39.2451 20.6068 37.9755 19.3633 35.5016 19.3633C33.6005 19.3633 32.2529 20.138 31.4586 21.6875V37H26.7125V15.8672H31.1852ZM74.3039 37C74.0956 36.5964 73.9133 35.9388 73.757 35.0273C72.2466 36.6029 70.3977 37.3906 68.2102 37.3906C66.0878 37.3906 64.356 36.7852 63.0148 35.5742C61.6737 34.3633 61.0031 32.8659 61.0031 31.082C61.0031 28.8294 61.8365 27.1042 63.5031 25.9062C65.1828 24.6953 67.5786 24.0898 70.6906 24.0898H73.6008V22.7031C73.6008 21.6094 73.2948 20.737 72.6828 20.0859C72.0708 19.4219 71.1398 19.0898 69.8898 19.0898C68.8091 19.0898 67.9237 19.3633 67.2336 19.9102C66.5435 20.444 66.1984 21.1276 66.1984 21.9609H61.4523C61.4523 20.8021 61.8365 19.7214 62.6047 18.7188C63.3729 17.7031 64.4146 16.9089 65.7297 16.3359C67.0578 15.763 68.5357 15.4766 70.1633 15.4766C72.6372 15.4766 74.6099 16.1016 76.0812 17.3516C77.5526 18.5885 78.3078 20.3333 78.3469 22.5859V32.1172C78.3469 34.0182 78.6138 35.5352 79.1477 36.668V37H74.3039ZM69.0891 33.582C70.0266 33.582 70.9055 33.3542 71.7258 32.8984C72.5591 32.4427 73.1841 31.8307 73.6008 31.0625V27.0781H71.0422C69.2844 27.0781 67.9628 27.3841 67.0773 27.9961C66.1919 28.6081 65.7492 29.474 65.7492 30.5938C65.7492 31.5052 66.0487 32.2344 66.6477 32.7812C67.2596 33.3151 68.0734 33.582 69.0891 33.582ZM94.532 20.2031C93.907 20.099 93.2625 20.0469 92.5984 20.0469C90.424 20.0469 88.9591 20.8802 88.2039 22.5469V37H83.4578V15.8672H87.9891L88.1062 18.2305C89.2521 16.3945 90.8406 15.4766 92.8719 15.4766C93.549 15.4766 94.1089 15.5677 94.5516 15.75L94.532 20.2031ZM104.604 10.7305V15.8672H108.334V19.3828H104.604V31.1797C104.604 31.987 104.76 32.5729 105.073 32.9375C105.398 33.2891 105.971 33.4648 106.791 33.4648C107.338 33.4648 107.892 33.3997 108.452 33.2695V36.9414C107.371 37.2409 106.329 37.3906 105.327 37.3906C101.681 37.3906 99.8578 35.3789 99.8578 31.3555V19.3828H96.3812V15.8672H99.8578V10.7305H104.604ZM148.427 26.9805V37H142.567V8.5625H153.661C155.796 8.5625 157.671 8.95312 159.286 9.73438C160.914 10.5156 162.164 11.6289 163.036 13.0742C163.908 14.5065 164.345 16.1406 164.345 17.9766C164.345 20.763 163.387 22.9635 161.473 24.5781C159.572 26.1797 156.936 26.9805 153.563 26.9805H148.427ZM148.427 22.2344H153.661C155.21 22.2344 156.389 21.8698 157.196 21.1406C158.016 20.4115 158.427 19.3698 158.427 18.0156C158.427 16.6224 158.016 15.4961 157.196 14.6367C156.376 13.7773 155.243 13.3346 153.798 13.3086H148.427V22.2344ZM191.168 37C190.96 36.5964 190.777 35.9388 190.621 35.0273C189.111 36.6029 187.262 37.3906 185.074 37.3906C182.952 37.3906 181.22 36.7852 179.879 35.5742C178.538 34.3633 177.867 32.8659 177.867 31.082C177.867 28.8294 178.701 27.1042 180.367 25.9062C182.047 24.6953 184.443 24.0898 187.555 24.0898H190.465V22.7031C190.465 21.6094 190.159 20.737 189.547 20.0859C188.935 19.4219 188.004 19.0898 186.754 19.0898C185.673 19.0898 184.788 19.3633 184.098 19.9102C183.408 20.444 183.062 21.1276 183.062 21.9609H178.316C178.316 20.8021 178.701 19.7214 179.469 18.7188C180.237 17.7031 181.279 16.9089 182.594 16.3359C183.922 15.763 185.4 15.4766 187.027 15.4766C189.501 15.4766 191.474 16.1016 192.945 17.3516C194.417 18.5885 195.172 20.3333 195.211 22.5859V32.1172C195.211 34.0182 195.478 35.5352 196.012 36.668V37H191.168ZM185.953 33.582C186.891 33.582 187.77 33.3542 188.59 32.8984C189.423 32.4427 190.048 31.8307 190.465 31.0625V27.0781H187.906C186.148 27.0781 184.827 27.3841 183.941 27.9961C183.056 28.6081 182.613 29.474 182.613 30.5938C182.613 31.5052 182.913 32.2344 183.512 32.7812C184.124 33.3151 184.938 33.582 185.953 33.582ZM211.396 20.2031C210.771 20.099 210.127 20.0469 209.462 20.0469C207.288 20.0469 205.823 20.8802 205.068 22.5469V37H200.322V15.8672H204.853L204.97 18.2305C206.116 16.3945 207.705 15.4766 209.736 15.4766C210.413 15.4766 210.973 15.5677 211.416 15.75L211.396 20.2031ZM221.409 27.9375L219.3 30.1055V37H214.554V7H219.3V24.3047L220.784 22.4492L226.624 15.8672H232.327L224.476 24.6758L233.167 37H227.679L221.409 27.9375ZM240.641 37H235.895V15.8672H240.641V37ZM235.602 10.3789C235.602 9.64974 235.83 9.04427 236.286 8.5625C236.755 8.08073 237.419 7.83984 238.278 7.83984C239.137 7.83984 239.802 8.08073 240.27 8.5625C240.739 9.04427 240.973 9.64974 240.973 10.3789C240.973 11.0951 240.739 11.694 240.27 12.1758C239.802 12.6445 239.137 12.8789 238.278 12.8789C237.419 12.8789 236.755 12.6445 236.286 12.1758C235.83 11.694 235.602 11.0951 235.602 10.3789ZM250.381 15.8672L250.518 18.3086C252.08 16.4206 254.131 15.4766 256.67 15.4766C261.071 15.4766 263.311 17.9961 263.389 23.0352V37H258.643V23.3086C258.643 21.9674 258.35 20.9779 257.764 20.3398C257.191 19.6888 256.247 19.3633 254.932 19.3633C253.018 19.3633 251.592 20.2292 250.655 21.9609V37H245.909V15.8672H250.381ZM267.562 26.2773C267.562 22.9961 268.331 20.3789 269.867 18.4258C271.417 16.4596 273.467 15.4766 276.02 15.4766C278.428 15.4766 280.323 16.3164 281.703 17.9961L281.918 15.8672H286.195V36.3555C286.195 39.1289 285.329 41.3164 283.598 42.918C281.879 44.5195 279.555 45.3203 276.625 45.3203C275.076 45.3203 273.559 44.9948 272.074 44.3438C270.603 43.7057 269.483 42.8659 268.715 41.8242L270.961 38.9727C272.419 40.7044 274.216 41.5703 276.352 41.5703C277.927 41.5703 279.171 41.1406 280.082 40.2812C280.993 39.4349 281.449 38.1849 281.449 36.5312V35.1055C280.082 36.6289 278.259 37.3906 275.98 37.3906C273.507 37.3906 271.482 36.4076 269.906 34.4414C268.344 32.4753 267.562 29.7539 267.562 26.2773ZM272.289 26.6875C272.289 28.8099 272.719 30.4831 273.578 31.707C274.451 32.918 275.655 33.5234 277.191 33.5234C279.105 33.5234 280.525 32.7031 281.449 31.0625V21.7656C280.551 20.1641 279.145 19.3633 277.23 19.3633C275.668 19.3633 274.451 19.9818 273.578 21.2188C272.719 22.4557 272.289 24.2786 272.289 26.6875Z" fill="white"/>
<rect x="133" y="3" width="39" height="39" rx="1" stroke="white" stroke-width="2"/>
</svg>
