<svg width="320" height="326" viewBox="0 0 320 326" fill="none" xmlns="http://www.w3.org/2000/svg">
<circle cx="160" cy="156" r="130" fill="#CFD8DC"/>
<g clip-path="url(#clip0)">
<path d="M108.346 128.429L118.783 69.7183H135.092L124.98 128.429H108.346Z" fill="#3C58BF"/>
<path d="M108.346 128.429L121.719 69.7183H135.092L124.98 128.429H108.346Z" fill="#293688"/>
<path d="M184.018 70.3706C180.756 69.0659 175.537 67.7613 169.014 67.7613C152.705 67.7613 140.963 75.9156 140.963 87.6577C140.963 96.4644 149.117 101.031 155.641 103.966C162.164 106.902 164.121 108.859 164.121 111.468C164.121 115.382 158.902 117.339 154.336 117.339C147.812 117.339 144.225 116.361 138.68 114.078L136.396 113.099L134.113 126.472C138.027 128.103 145.203 129.734 152.705 129.734C169.992 129.734 181.408 121.58 181.408 109.185C181.408 102.335 177.168 97.1167 167.383 92.8765C161.512 89.9409 157.924 88.3101 157.924 85.3745C157.924 82.7652 160.859 80.1558 167.383 80.1558C172.928 80.1558 176.842 81.1343 179.777 82.439L181.408 83.0913L184.018 70.3706Z" fill="#3C58BF"/>
<path d="M184.018 70.3706C180.756 69.0659 175.537 67.7613 169.014 67.7613C152.705 67.7613 143.898 75.9156 143.898 87.6577C143.898 96.4644 149.117 101.031 155.641 103.966C162.164 106.902 164.121 108.859 164.121 111.468C164.121 115.382 158.902 117.339 154.336 117.339C147.812 117.339 144.225 116.361 138.68 114.078L136.396 113.099L134.113 126.472C138.027 128.103 145.203 129.734 152.705 129.734C169.992 129.734 181.408 121.58 181.408 109.185C181.408 102.335 177.168 97.1167 167.383 92.8765C161.512 89.9409 157.924 88.3101 157.924 85.3745C157.924 82.7652 160.859 80.1558 167.383 80.1558C172.928 80.1558 176.842 81.1343 179.777 82.439L181.408 83.0913L184.018 70.3706Z" fill="#293688"/>
<path d="M212.068 69.7183C208.154 69.7183 205.219 70.0445 203.588 73.9585L179.125 128.429H196.738L200 118.644H220.875L222.832 128.429H238.488L224.789 69.7183H212.068V69.7183ZM204.566 108.859C205.545 105.923 211.09 91.5718 211.09 91.5718C211.09 91.5718 212.394 87.9839 213.373 85.7007L214.351 91.2456C214.351 91.2456 217.613 105.923 218.266 109.185H204.566V108.859Z" fill="#3C58BF"/>
<path d="M215.982 69.7183C212.068 69.7183 209.133 70.0445 207.502 73.9585L179.125 128.429H196.738L200 118.644H220.875L222.832 128.429H238.488L224.789 69.7183H215.982V69.7183ZM204.566 108.859C205.871 105.597 211.09 91.5718 211.09 91.5718C211.09 91.5718 212.394 87.9839 213.373 85.7007L214.351 91.2456C214.351 91.2456 217.613 105.923 218.266 109.185H204.566V108.859Z" fill="#293688"/>
<path d="M78.3378 110.816L76.707 102.335C73.7714 92.5503 64.3125 81.7866 53.875 76.5679L68.5527 128.755H86.166L112.586 70.0444H94.9726L78.3378 110.816Z" fill="#3C58BF"/>
<path d="M78.3378 110.816L76.707 102.335C73.7714 92.5503 64.3125 81.7866 53.875 76.5679L68.5527 128.755H86.166L112.586 70.0444H98.2343L78.3378 110.816Z" fill="#293688"/>
<path d="M33 69.7183L35.9355 70.3706C56.8105 75.2632 71.1621 87.6577 76.707 102.335L70.8359 74.6109C69.8574 70.6968 66.9219 69.7183 63.334 69.7183H33V69.7183Z" fill="#FFBC00"/>
<path d="M33 69.7183C53.875 74.6109 71.1621 87.3316 76.707 102.009L71.1621 78.8511C70.1836 74.937 66.9219 72.6538 63.334 72.6538L33 69.7183Z" fill="#F7981D"/>
<path d="M33 69.7183C53.875 74.6109 71.1621 87.3316 76.707 102.009L72.7929 89.2886C71.8144 85.3745 70.5097 81.4605 65.9433 79.8296L33 69.7183Z" fill="#ED7C00"/>
<path d="M94.6465 108.859L83.5566 97.769L78.3379 110.164L77.0332 102.009C74.0976 92.2241 64.6387 81.4604 54.2012 76.2417L68.8789 128.429H86.4922L94.6465 108.859Z" fill="#051244"/>
<path d="M124.98 128.429L110.955 114.078L108.346 128.429H124.98Z" fill="#051244"/>
<path d="M162.49 108.206C163.795 109.511 164.447 110.49 164.121 111.794C164.121 115.708 158.902 117.665 154.336 117.665C147.812 117.665 144.225 116.687 138.68 114.404L136.396 113.425L134.113 126.798C138.027 128.429 145.203 130.06 152.705 130.06C163.143 130.06 171.623 127.124 176.516 121.906L162.49 108.206Z" fill="#051244"/>
<path d="M181.408 128.429H196.738L200 118.644H220.875L222.832 128.429H238.488L232.943 104.619L213.373 85.7007L214.351 90.9194C214.351 90.9194 217.613 105.597 218.266 108.859H204.566C205.871 105.597 211.09 91.5718 211.09 91.5718C211.09 91.5718 212.394 87.9839 213.373 85.7007" fill="#051244"/>
</g>
<g clip-path="url(#clip1)">
<path d="M290 226.293C290 259.173 263.443 286.045 230.248 286.045C197.368 286.045 170.496 259.173 170.496 226.293C170.496 193.414 197.052 166.541 229.932 166.541C263.443 166.541 290 193.414 290 226.293Z" fill="#FFB600"/>
<path d="M230.248 166.541C263.127 166.541 290 193.414 290 226.293C290 259.173 263.443 286.045 230.248 286.045C197.368 286.045 170.496 259.173 170.496 226.293" fill="#F7981D"/>
<path d="M230.248 166.541C263.127 166.541 290 193.414 290 226.293C290 259.173 263.443 286.045 230.248 286.045" fill="#FF8500"/>
<path d="M149.946 166.541C117.382 166.857 90.8258 193.414 90.8258 226.293C90.8258 259.173 117.382 286.045 150.578 286.045C166.069 286.045 179.98 280.039 190.729 270.554C192.942 268.657 194.839 266.444 196.736 264.231H184.406C182.825 262.334 181.245 260.121 179.98 258.224H201.162C202.427 256.327 203.691 254.114 204.64 251.901H176.502C175.554 250.004 174.605 247.791 173.973 245.578H206.853C208.75 239.571 210.014 233.248 210.014 226.609C210.014 222.183 209.382 218.073 208.75 213.963H172.076C172.392 211.75 173.025 209.853 173.657 207.64H206.537C205.904 205.427 204.956 203.214 204.007 201.317H176.186C177.135 199.104 178.399 197.207 179.664 194.994H200.846C199.581 192.781 198.001 190.568 196.104 188.671H184.406C186.303 186.458 188.2 184.561 190.413 182.665C179.98 172.864 165.753 167.173 150.262 167.173C150.262 166.541 150.262 166.541 149.946 166.541Z" fill="#FF5050"/>
<path d="M90.8258 226.293C90.8258 259.173 117.382 286.045 150.578 286.045C166.069 286.045 179.98 280.039 190.729 270.554C192.942 268.657 194.839 266.444 196.736 264.231H184.406C182.825 262.334 181.245 260.121 179.98 258.224H201.162C202.427 256.327 203.691 254.114 204.64 251.901H176.502C175.554 250.004 174.605 247.791 173.973 245.578H206.853C208.75 239.571 210.014 233.248 210.014 226.609C210.014 222.183 209.382 218.073 208.75 213.963H172.076C172.392 211.75 173.025 209.853 173.657 207.64H206.537C205.904 205.427 204.956 203.214 204.007 201.317H176.186C177.135 199.104 178.399 197.207 179.664 194.994H200.846C199.581 192.781 198.001 190.568 196.104 188.671H184.406C186.303 186.458 188.2 184.561 190.413 182.665C179.98 172.864 165.753 167.173 150.262 167.173H149.946" fill="#E52836"/>
<path d="M150.578 286.045C166.069 286.045 179.98 280.039 190.729 270.554C192.942 268.657 194.839 266.444 196.736 264.231H184.406C182.825 262.334 181.245 260.121 179.98 258.224H201.162C202.427 256.327 203.691 254.114 204.64 251.901H176.502C175.554 250.004 174.605 247.791 173.973 245.578H206.853C208.75 239.571 210.014 233.248 210.014 226.609C210.014 222.183 209.382 218.073 208.75 213.963H172.076C172.392 211.75 173.025 209.853 173.657 207.64H206.537C205.904 205.427 204.956 203.214 204.007 201.317H176.186C177.135 199.104 178.399 197.207 179.664 194.994H200.846C199.581 192.781 198 190.568 196.104 188.671H184.406C186.303 186.458 188.2 184.561 190.413 182.665C179.98 172.864 165.753 167.173 150.262 167.173H149.946" fill="#CB2026"/>
<path d="M171.76 241.468L172.709 236.094C172.392 236.094 171.76 236.41 171.128 236.41C168.915 236.41 168.599 235.145 168.915 234.513L170.812 223.448H174.289L175.238 217.441H172.076L172.709 213.647H166.386C166.386 213.647 162.592 234.513 162.592 237.042C162.592 240.836 164.805 242.417 167.65 242.417C169.547 242.417 171.128 241.785 171.76 241.468Z" fill="white"/>
<path d="M173.973 231.352C173.973 240.204 179.98 242.417 185.038 242.417C189.781 242.417 191.678 241.468 191.678 241.468L192.942 235.462C192.942 235.462 189.464 237.042 186.303 237.042C179.348 237.042 180.612 231.984 180.612 231.984H193.574C193.574 231.984 194.523 227.874 194.523 226.293C194.523 222.183 192.31 217.125 185.355 217.125C178.715 216.493 173.973 223.448 173.973 231.352ZM185.038 222.183C188.516 222.183 187.884 226.293 187.884 226.609H180.928C180.928 226.293 181.561 222.183 185.038 222.183Z" fill="white"/>
<path d="M225.189 241.468L226.454 234.513C226.454 234.513 223.292 236.094 221.079 236.094C216.653 236.094 214.756 232.616 214.756 228.822C214.756 221.235 218.55 217.125 222.976 217.125C226.138 217.125 228.667 219.022 228.667 219.022L229.616 212.383C229.616 212.383 225.822 210.802 222.344 210.802C215.073 210.802 207.801 217.125 207.801 229.139C207.801 237.042 211.595 242.417 219.183 242.417C221.712 242.417 225.189 241.468 225.189 241.468Z" fill="white"/>
<path d="M136.984 216.493C132.558 216.493 129.396 217.757 129.396 217.757L128.448 223.132C128.448 223.132 131.293 221.867 135.403 221.867C137.616 221.867 139.513 222.183 139.513 224.08C139.513 225.345 139.197 225.661 139.197 225.661C139.197 225.661 137.3 225.661 136.351 225.661C130.977 225.661 124.97 227.874 124.97 235.145C124.97 240.836 128.764 242.101 130.977 242.101C135.403 242.101 137.3 239.255 137.616 239.255L137.3 241.785H142.991L145.52 224.396C145.52 216.809 139.197 216.493 136.984 216.493ZM138.248 230.719C138.248 231.668 137.616 236.726 133.822 236.726C131.925 236.726 131.293 235.145 131.293 234.197C131.293 232.616 132.241 230.403 136.984 230.403C137.932 230.719 138.248 230.719 138.248 230.719Z" fill="white"/>
<path d="M151.527 242.101C153.107 242.101 161.011 242.417 161.011 233.881C161.011 225.977 153.423 227.558 153.423 224.396C153.423 222.816 154.688 222.183 156.901 222.183C157.849 222.183 161.327 222.499 161.327 222.499L162.276 216.809C162.276 216.809 160.063 216.176 156.269 216.176C151.527 216.176 146.784 218.073 146.784 224.396C146.784 231.668 154.688 231.035 154.688 233.881C154.688 235.778 152.475 236.094 150.894 236.094C148.049 236.094 145.204 235.145 145.204 235.145L144.255 240.836C144.571 241.468 146.152 242.101 151.527 242.101Z" fill="white"/>
<path d="M277.67 211.434L276.406 219.97C276.406 219.97 273.876 216.809 270.399 216.809C264.708 216.809 259.65 223.764 259.65 231.984C259.65 237.042 262.179 242.417 267.553 242.417C271.347 242.417 273.56 239.888 273.56 239.888L273.244 242.101H279.567L284.309 211.75L277.67 211.434ZM274.825 228.19C274.825 231.668 273.244 236.094 269.766 236.094C267.553 236.094 266.289 234.197 266.289 231.035C266.289 225.977 268.502 222.816 271.347 222.816C273.56 222.816 274.825 224.396 274.825 228.19Z" fill="white"/>
<path d="M102.523 241.785L106.317 219.022L106.949 241.785H111.376L119.595 219.022L116.118 241.785H122.757L127.815 211.434H117.382L111.059 230.087L110.743 211.434H101.575L96.5165 241.785H102.523Z" fill="white"/>
<path d="M200.53 241.785C202.427 231.352 202.743 222.816 207.169 224.396C207.801 220.286 208.75 218.706 209.382 217.125C209.382 217.125 209.066 217.125 208.117 217.125C205.272 217.125 203.059 220.919 203.059 220.919L203.691 217.441H197.684L193.574 242.101H200.53V241.785Z" fill="white"/>
<path d="M239.732 216.493C235.306 216.493 232.145 217.757 232.145 217.757L231.196 223.132C231.196 223.132 234.042 221.867 238.152 221.867C240.365 221.867 242.261 222.183 242.261 224.08C242.261 225.345 241.945 225.661 241.945 225.661C241.945 225.661 240.048 225.661 239.1 225.661C233.725 225.661 227.719 227.874 227.719 235.145C227.719 240.836 231.512 242.101 233.725 242.101C238.152 242.101 240.048 239.255 240.365 239.255L240.048 241.785H245.739L248.268 224.396C248.584 216.809 241.945 216.493 239.732 216.493ZM241.313 230.719C241.313 231.668 240.681 236.726 236.887 236.726C234.99 236.726 234.358 235.145 234.358 234.197C234.358 232.616 235.306 230.403 240.048 230.403C240.997 230.719 240.997 230.719 241.313 230.719Z" fill="white"/>
<path d="M253.643 241.785C255.54 231.352 255.856 222.816 260.282 224.396C260.914 220.286 261.863 218.706 262.495 217.125C262.495 217.125 262.179 217.125 261.23 217.125C258.385 217.125 256.172 220.919 256.172 220.919L256.804 217.441H250.797L246.688 242.101H253.643V241.785Z" fill="white"/>
<path d="M161.959 237.042C161.959 240.836 164.173 242.417 167.018 242.417C169.231 242.417 171.128 241.785 171.76 241.468L172.709 236.094C172.392 236.094 171.76 236.41 171.128 236.41C168.915 236.41 168.599 235.145 168.915 234.513L170.812 223.448H174.289L175.238 217.441H172.076L172.709 213.647" fill="#DCE5E5"/>
<path d="M177.135 231.352C177.135 240.204 179.98 242.417 185.038 242.417C189.781 242.417 191.678 241.468 191.678 241.468L192.942 235.462C192.942 235.462 189.464 237.042 186.303 237.042C179.348 237.042 180.612 231.984 180.612 231.984H193.574C193.574 231.984 194.523 227.874 194.523 226.293C194.523 222.183 192.31 217.125 185.355 217.125C178.715 216.493 177.135 223.448 177.135 231.352ZM185.038 222.183C188.516 222.183 189.148 226.293 189.148 226.609H180.928C180.928 226.293 181.561 222.183 185.038 222.183Z" fill="#DCE5E5"/>
<path d="M225.189 241.468L226.454 234.513C226.454 234.513 223.292 236.094 221.079 236.094C216.653 236.094 214.756 232.616 214.756 228.822C214.756 221.235 218.55 217.125 222.976 217.125C226.138 217.125 228.667 219.022 228.667 219.022L229.615 212.383C229.615 212.383 225.822 210.802 222.344 210.802C215.073 210.802 210.963 217.125 210.963 229.139C210.963 237.042 211.595 242.417 219.183 242.417C221.712 242.417 225.189 241.468 225.189 241.468Z" fill="#DCE5E5"/>
<path d="M128.448 223.448C128.448 223.448 131.293 222.183 135.403 222.183C137.616 222.183 139.513 222.499 139.513 224.396C139.513 225.661 139.197 225.977 139.197 225.977C139.197 225.977 137.3 225.977 136.351 225.977C130.977 225.977 124.97 228.19 124.97 235.462C124.97 241.152 128.764 242.417 130.977 242.417C135.403 242.417 137.3 239.571 137.616 239.571L137.3 242.101H142.991L145.52 224.712C145.52 217.441 139.197 217.125 136.668 217.125L128.448 223.448ZM141.41 230.719C141.41 231.668 137.616 236.726 133.822 236.726C131.925 236.726 131.293 235.145 131.293 234.197C131.293 232.616 132.241 230.403 136.984 230.403C137.932 230.719 141.41 230.719 141.41 230.719Z" fill="#DCE5E5"/>
<path d="M144.571 241.468C144.571 241.468 146.468 242.101 151.843 242.101C153.423 242.101 161.327 242.417 161.327 233.881C161.327 225.977 153.74 227.558 153.74 224.396C153.74 222.816 155.004 222.183 157.217 222.183C158.166 222.183 161.643 222.499 161.643 222.499L162.592 216.809C162.592 216.809 160.379 216.176 156.585 216.176C151.843 216.176 150.262 218.073 150.262 224.396C150.262 231.668 155.004 231.035 155.004 233.881C155.004 235.778 152.791 236.094 151.21 236.094" fill="#DCE5E5"/>
<path d="M276.406 219.97C276.406 219.97 273.876 216.809 270.399 216.809C264.708 216.809 262.811 223.764 262.811 231.984C262.811 237.042 262.179 242.417 267.553 242.417C271.347 242.417 273.56 239.888 273.56 239.888L273.244 242.101H279.567L284.309 211.75L276.406 219.97ZM276.089 228.19C276.089 231.668 273.244 236.094 269.766 236.094C267.553 236.094 266.289 234.197 266.289 231.035C266.289 225.977 268.502 222.816 271.347 222.816C273.56 222.816 276.089 224.396 276.089 228.19Z" fill="#DCE5E5"/>
<path d="M102.523 241.785L106.317 219.022L106.949 241.785H111.376L119.595 219.022L116.118 241.785H122.757L127.815 211.434H119.912L111.059 230.087L110.743 211.434H107.266L96.5165 241.785H102.523Z" fill="#DCE5E5"/>
<path d="M193.891 241.785H200.53C202.427 231.352 202.743 222.816 207.169 224.396C207.801 220.286 208.75 218.706 209.382 217.125C209.382 217.125 209.066 217.125 208.117 217.125C205.272 217.125 203.059 220.919 203.059 220.919L203.691 217.441" fill="#DCE5E5"/>
<path d="M231.196 223.448C231.196 223.448 234.042 222.183 238.152 222.183C240.365 222.183 242.261 222.499 242.261 224.396C242.261 225.661 241.945 225.977 241.945 225.977C241.945 225.977 240.048 225.977 239.1 225.977C233.725 225.977 227.719 228.19 227.719 235.462C227.719 241.152 231.512 242.417 233.725 242.417C238.152 242.417 240.048 239.571 240.365 239.571L240.048 242.101H245.739L248.268 224.712C248.268 217.441 241.945 217.125 239.416 217.125L231.196 223.448ZM244.158 230.719C244.158 231.668 240.365 236.726 236.571 236.726C234.674 236.726 234.042 235.145 234.042 234.197C234.042 232.616 234.99 230.403 239.732 230.403C240.997 230.719 244.158 230.719 244.158 230.719Z" fill="#DCE5E5"/>
<path d="M247.004 241.785H253.643C255.54 231.352 255.856 222.816 260.282 224.396C260.914 220.286 261.863 218.706 262.495 217.125C262.495 217.125 262.179 217.125 261.23 217.125C258.385 217.125 256.172 220.919 256.172 220.919L256.804 217.441" fill="#DCE5E5"/>
</g>
<defs>
<clipPath id="clip0">
<rect width="205.488" height="205.488" fill="white" transform="translate(33 41)"/>
</clipPath>
<clipPath id="clip1">
<rect width="199.174" height="199.174" fill="white" transform="translate(90.8258 126.706)"/>
</clipPath>
</defs>
</svg>
