<svg width="320" height="320" viewBox="0 0 320 320" fill="none" xmlns="http://www.w3.org/2000/svg">
<circle cx="160" cy="141" r="130" fill="#CFD8DC"/>
<circle cx="159.551" cy="110.551" r="100.551" fill="#90A4AE"/>
<path fill-rule="evenodd" clip-rule="evenodd" d="M87.901 181.1C127.202 219.943 190.549 219.801 229.675 180.675C268.801 141.549 268.943 78.202 230.1 38.901L87.901 181.1Z" fill="#78909C"/>
<path fill-rule="evenodd" clip-rule="evenodd" d="M244.857 91.8862H74.2461C82.7942 52.6375 117.74 23.2463 159.551 23.2463C201.362 23.2463 236.309 52.6375 244.857 91.8862Z" fill="white"/>
<path fill-rule="evenodd" clip-rule="evenodd" d="M150.243 146.213H162.83C171.149 146.213 175.949 142.186 175.949 134.549C175.949 127.012 171.149 123.196 162.83 123.196H150.243V146.213ZM163.789 108.745C182.883 108.745 193.871 117.826 193.871 133.931C193.871 150.857 182.883 160.664 163.789 160.664H150.243V180.998H131.253V108.745H163.789Z" fill="white"/>
<circle cx="90.3094" cy="82.2526" r="4.81684" fill="#37474F"/>
<circle cx="160.154" cy="34.0842" r="4.81684" fill="#37474F"/>
<circle cx="110.781" cy="50.9431" r="4.81684" fill="#37474F"/>
<circle cx="207.118" cy="50.9431" r="4.81684" fill="#37474F"/>
<circle cx="229.998" cy="82.2526" r="4.81684" fill="#37474F"/>
<rect x="152.928" y="49.7389" width="14.4505" height="42.1473" rx="7.22525" fill="#D4587A"/>
<path fill-rule="evenodd" clip-rule="evenodd" d="M178.02 93.0904H142.287C145.145 86.0294 152.068 81.0483 160.154 81.0483C168.24 81.0483 175.162 86.0294 178.02 93.0904Z" fill="#37474F"/>
<rect x="109.577" y="199.061" width="101.154" height="18.0631" rx="9.03157" fill="#78909C"/>
<path d="M140.886 217.124H179.421V281C179.421 282.105 178.525 283 177.421 283H142.886C141.782 283 140.886 282.105 140.886 281V217.124Z" fill="#90A4AE"/>
<path d="M160.154 217.124H179.421V281C179.421 282.105 178.525 283 177.421 283H160.154V217.124Z" fill="#78909C"/>
</svg>
