<svg width="320" height="320" viewBox="0 0 320 320" fill="none" xmlns="http://www.w3.org/2000/svg">
<circle cx="158" cy="160" r="130" fill="#CFD8DC"/>
<rect x="95.6013" y="98" width="45.8382" height="18.516" rx="9.25799" transform="rotate(47.271 95.6013 98)" fill="#FC801C"/>
<rect x="106" y="123" width="36" height="21" fill="#FC801C"/>
<circle cx="124" cy="111" r="15" fill="#FFCEA2"/>
<path d="M61 169.5C61 167.015 63.0147 165 65.5 165H73.5C75.9853 165 78 167.015 78 169.5V169.5C78 171.985 75.9853 174 73.5 174H65.5C63.0147 174 61 171.985 61 169.5V169.5Z" fill="#37474F"/>
<path d="M71.4157 166.93C73.3022 165.312 76.1431 165.529 77.7611 167.416L88.1776 179.561C89.7956 181.447 89.578 184.288 87.6915 185.906V185.906C85.8051 187.524 82.9642 187.306 81.3462 185.42L70.9297 173.275C69.3117 171.389 69.5293 168.548 71.4157 166.93V166.93Z" fill="#37474F"/>
<path d="M85.9241 162.523C88.4867 151.11 98.6199 143 110.317 143H142V180H82L85.9241 162.523Z" fill="#5BBDC8"/>
<path d="M92.7432 170.492C94.9194 158.621 105.265 150 117.333 150H142V180H91L92.7432 170.492Z" fill="#ECEFF1"/>
<path d="M72 240H108V252C108 258.627 102.627 264 96 264H84C77.3726 264 72 258.627 72 252V240Z" fill="#37474F"/>
<path d="M58 205C58 191.193 69.1929 180 83 180H142V240H63C60.2386 240 58 237.761 58 235V205Z" fill="#5BBDC8"/>
<circle cx="89.5" cy="215.5" r="14.5" fill="#FDD835"/>
<circle cx="89.5" cy="215.5" r="5.5" fill="#FFECB3"/>
<path d="M119 220C119 214.477 123.477 210 129 210H142V240H119V220Z" fill="#ECEFF1"/>
<rect width="45.8382" height="18.516" rx="9.25799" transform="matrix(-0.678532 0.734571 0.734571 0.678532 188.399 98)" fill="#D4587A"/>
<rect width="36" height="21" transform="matrix(-1 0 0 1 178 123)" fill="#D4587A"/>
<circle r="15" transform="matrix(-1 0 0 1 160 111)" fill="#FFCEA2"/>
<path d="M223 169.5C223 167.015 220.985 165 218.5 165H210.5C208.015 165 206 167.015 206 169.5V169.5C206 171.985 208.015 174 210.5 174H218.5C220.985 174 223 171.985 223 169.5V169.5Z" fill="#37474F"/>
<path d="M212.584 166.93C210.698 165.312 207.857 165.529 206.239 167.416L195.822 179.561C194.204 181.447 194.422 184.288 196.308 185.906V185.906C198.195 187.524 201.036 187.306 202.654 185.42L213.07 173.275C214.688 171.389 214.471 168.548 212.584 166.93V166.93Z" fill="#37474F"/>
<path d="M198.076 162.523C195.513 151.11 185.38 143 173.683 143H142V180H202L198.076 162.523Z" fill="#5BBDC8"/>
<path d="M191.257 170.492C189.081 158.621 178.735 150 166.667 150H142V180H193L191.257 170.492Z" fill="#CFD8DC"/>
<path d="M212 240H176V252C176 258.627 181.373 264 188 264H200C206.627 264 212 258.627 212 252V240Z" fill="#37474F"/>
<path d="M226 205C226 191.193 214.807 180 201 180H142V240H221C223.761 240 226 237.761 226 235V205Z" fill="#5BBDC8"/>
<circle r="14.5" transform="matrix(-1 0 0 1 194.5 215.5)" fill="#FDD835"/>
<circle r="5.5" transform="matrix(-1 0 0 1 194.5 215.5)" fill="#FFECB3"/>
<path d="M165 220C165 214.477 160.523 210 155 210H142V240H165V220Z" fill="#CFD8DC"/>
<path d="M233.2 123C233.2 120.239 235.439 118 238.2 118H240V264H233.2V123Z" fill="#90A4AE"/>
<path d="M232 250.75C232 247.989 234.239 245.75 237 245.75H240V264H232V250.75Z" fill="#90A4AE"/>
<path d="M246.667 123C246.667 120.239 244.428 118 241.667 118H240V264H246.667V123Z" fill="#78909C"/>
<path d="M248 250.75C248 247.989 245.761 245.75 243 245.75H240V264H248V250.75Z" fill="#78909C"/>
<rect x="206" y="53" width="67" height="80" rx="6" fill="#90A4AE"/>
<path fill-rule="evenodd" clip-rule="evenodd" d="M267 53H240V133H267C270.314 133 273 130.314 273 127V59C273 55.6863 270.314 53 267 53Z" fill="#78909C"/>
<rect x="209" y="56" width="60" height="73" rx="6" fill="#1976D2"/>
<path fill-rule="evenodd" clip-rule="evenodd" d="M234.492 82.594H240.12C243.84 82.594 245.986 80.8107 245.986 77.4284C245.986 74.0901 243.84 72.4003 240.12 72.4003H234.492V82.594ZM240.549 66C249.086 66 254 70.0217 254 77.1548C254 84.6509 249.086 88.9942 240.549 88.9942H234.492V98H226V66H240.549Z" fill="white"/>
<path d="M221.115 114.66V118H219.99V109.469H223.137C224.07 109.469 224.801 109.707 225.328 110.184C225.859 110.66 226.125 111.291 226.125 112.076C226.125 112.904 225.865 113.543 225.346 113.992C224.83 114.438 224.09 114.66 223.125 114.66H221.115ZM221.115 113.74H223.137C223.738 113.74 224.199 113.6 224.52 113.318C224.84 113.033 225 112.623 225 112.088C225 111.58 224.84 111.174 224.52 110.869C224.199 110.564 223.76 110.406 223.201 110.395H221.115V113.74ZM231.234 118C231.172 117.875 231.121 117.652 231.082 117.332C230.578 117.855 229.977 118.117 229.277 118.117C228.652 118.117 228.139 117.941 227.736 117.59C227.338 117.234 227.139 116.785 227.139 116.242C227.139 115.582 227.389 115.07 227.889 114.707C228.393 114.34 229.1 114.156 230.01 114.156H231.064V113.658C231.064 113.279 230.951 112.979 230.725 112.756C230.498 112.529 230.164 112.416 229.723 112.416C229.336 112.416 229.012 112.514 228.75 112.709C228.488 112.904 228.357 113.141 228.357 113.418H227.268C227.268 113.102 227.379 112.797 227.602 112.504C227.828 112.207 228.133 111.973 228.516 111.801C228.902 111.629 229.326 111.543 229.787 111.543C230.518 111.543 231.09 111.727 231.504 112.094C231.918 112.457 232.133 112.959 232.148 113.6V116.518C232.148 117.1 232.223 117.562 232.371 117.906V118H231.234ZM229.436 117.174C229.775 117.174 230.098 117.086 230.402 116.91C230.707 116.734 230.928 116.506 231.064 116.225V114.924H230.215C228.887 114.924 228.223 115.312 228.223 116.09C228.223 116.43 228.336 116.695 228.562 116.887C228.789 117.078 229.08 117.174 229.436 117.174ZM236.912 112.633C236.748 112.605 236.57 112.592 236.379 112.592C235.668 112.592 235.186 112.895 234.932 113.5V118H233.848V111.66H234.902L234.92 112.393C235.275 111.826 235.779 111.543 236.432 111.543C236.643 111.543 236.803 111.57 236.912 111.625V112.633ZM239.684 115.064L239.004 115.773V118H237.92V109H239.004V114.443L239.584 113.746L241.559 111.66H242.877L240.41 114.309L243.164 118H241.893L239.684 115.064ZM245.174 118H244.09V111.66H245.174V118ZM244.002 109.979C244.002 109.803 244.055 109.654 244.16 109.533C244.27 109.412 244.43 109.352 244.641 109.352C244.852 109.352 245.012 109.412 245.121 109.533C245.23 109.654 245.285 109.803 245.285 109.979C245.285 110.154 245.23 110.301 245.121 110.418C245.012 110.535 244.852 110.594 244.641 110.594C244.43 110.594 244.27 110.535 244.16 110.418C244.055 110.301 244.002 110.154 244.002 109.979ZM247.939 111.66L247.975 112.457C248.459 111.848 249.092 111.543 249.873 111.543C251.213 111.543 251.889 112.299 251.9 113.811V118H250.816V113.805C250.812 113.348 250.707 113.01 250.5 112.791C250.297 112.572 249.979 112.463 249.545 112.463C249.193 112.463 248.885 112.557 248.619 112.744C248.354 112.932 248.146 113.178 247.998 113.482V118H246.914V111.66H247.939ZM253.277 114.777C253.277 113.789 253.506 113.004 253.963 112.422C254.42 111.836 255.025 111.543 255.779 111.543C256.553 111.543 257.156 111.816 257.59 112.363L257.643 111.66H258.633V117.848C258.633 118.668 258.389 119.314 257.9 119.787C257.416 120.26 256.764 120.496 255.943 120.496C255.486 120.496 255.039 120.398 254.602 120.203C254.164 120.008 253.83 119.74 253.6 119.4L254.162 118.75C254.627 119.324 255.195 119.611 255.867 119.611C256.395 119.611 256.805 119.463 257.098 119.166C257.395 118.869 257.543 118.451 257.543 117.912V117.367C257.109 117.867 256.518 118.117 255.768 118.117C255.025 118.117 254.424 117.818 253.963 117.221C253.506 116.623 253.277 115.809 253.277 114.777ZM254.367 114.9C254.367 115.615 254.514 116.178 254.807 116.588C255.1 116.994 255.51 117.197 256.037 117.197C256.721 117.197 257.223 116.887 257.543 116.266V113.371C257.211 112.766 256.713 112.463 256.049 112.463C255.521 112.463 255.109 112.668 254.812 113.078C254.516 113.488 254.367 114.096 254.367 114.9Z" fill="white"/>
<rect x="29" y="264" width="250" height="4" rx="2" fill="#37474F" fill-opacity="0.7"/>
</svg>
