<svg width="33" height="33" viewBox="0 0 33 33" fill="none" xmlns="http://www.w3.org/2000/svg">
<path d="M28.8972 27.6173H29.2608C29.5315 27.6173 29.7509 27.3978 29.7509 27.1272V24.9708C29.7509 24.7001 29.5315 24.4807 29.2608 24.4807H27.6887L28.0434 21.4572C28.0749 21.1883 27.8825 20.9448 27.6137 20.9134C27.345 20.8815 27.1014 21.0742 27.0699 21.343L26.7018 24.4807H24.8057L25.2399 20.2856C25.2542 20.1476 25.2094 20.01 25.1164 19.9069C25.0234 19.8039 24.8912 19.7451 24.7524 19.7451H23.3316C23.0072 18.6749 22.512 17.672 21.8737 16.7724L26.3011 17.2115C26.6304 17.2442 26.9259 17.4041 27.1332 17.6619C27.3404 17.9196 27.4336 18.2424 27.395 18.571L27.2412 19.8815C27.2097 20.1503 27.4021 20.3938 27.6709 20.4253C27.6903 20.4277 27.7096 20.4288 27.7286 20.4288C27.9737 20.4288 28.1855 20.2451 28.2147 19.9957L28.3685 18.6852C28.438 18.0933 28.2704 17.5117 27.8968 17.0474C27.5232 16.5832 26.9908 16.295 26.3978 16.2362L20.9996 15.7007C20.6703 15.348 20.3159 15.018 19.9386 14.7136L18.6687 8.51869C19.8796 7.67164 20.6737 6.26786 20.6737 4.68128C20.6736 2.09994 18.5737 0 15.9924 0C13.4113 0 11.3113 2.09994 11.3113 4.68116C11.3113 6.06457 11.915 7.30929 12.8722 8.16697L12.5583 9.39247C12.4426 9.84429 12.3496 10.3015 12.2784 10.762L10.9373 7.26972C10.6669 6.56537 9.97821 6.09209 9.22366 6.09209C8.65473 6.09209 8.12751 6.3492 7.7772 6.79747C7.4269 7.24574 7.30483 7.81943 7.44231 8.37147L8.74516 13.6022C7.69573 14.1495 6.73906 14.8797 5.92096 15.7708C4.17602 17.6712 3.21503 20.1397 3.21503 22.7215C3.21503 28.389 7.82587 32.9998 13.4933 32.9998C17.3898 32.9998 20.7868 30.8207 22.5296 27.6172H24.3093C23.7603 28.1892 23.4218 28.9647 23.4218 29.8183C23.4218 31.5726 24.849 32.9999 26.6033 32.9999C28.3576 32.9999 29.7849 31.5727 29.7849 29.8183C29.7848 28.9648 29.4463 28.1893 28.8972 27.6173ZM24.2089 20.7252L23.8203 24.4807H23.6212C23.7202 23.9089 23.7724 23.3212 23.7724 22.7215C23.7724 22.0416 23.7049 21.3738 23.5763 20.7252H24.2089V20.7252ZM18.771 13.8985C18.0736 13.4807 17.3196 13.1418 16.5193 12.8959V11.211C16.5193 10.9403 16.2998 10.7208 16.0292 10.7208C15.7585 10.7208 15.5391 10.9403 15.5391 11.211V19.3462H13.0888V12.9824C13.0888 12.979 13.0888 12.9755 13.0888 12.9721V12.9627C13.0888 11.8413 13.2299 10.7219 13.5081 9.63566L13.7282 8.77637C14.3996 9.14923 15.1714 9.36231 15.9924 9.36231C16.6211 9.36231 17.2209 9.23689 17.7691 9.01117L18.771 13.8985ZM15.539 20.3264V21.2576C15.539 21.9331 14.9893 22.4827 14.3138 22.4827C13.6382 22.4827 13.0886 21.9331 13.0886 21.2576V20.3264H13.0886H15.539ZM12.2915 4.68116C12.2915 2.64044 13.9517 0.980201 15.9924 0.980201C18.0332 0.980201 19.6935 2.64044 19.6935 4.68116C19.6935 6.72187 18.0332 8.38211 15.9924 8.38211C13.9517 8.38211 12.2915 6.72187 12.2915 4.68116ZM8.3935 8.13467C8.32937 7.87738 8.38628 7.61003 8.54954 7.40107C8.7128 7.19218 8.9585 7.07236 9.22359 7.07236C9.57525 7.07236 9.89616 7.29292 10.0222 7.62111L11.9198 12.5625C11.1375 12.6828 10.377 12.8925 9.65137 13.1849L8.3935 8.13467ZM13.4934 32.0197C8.36637 32.0197 4.19529 27.8485 4.19529 22.7215C4.19529 20.3859 5.06457 18.1529 6.64302 16.4338C7.46428 15.5393 8.43978 14.8242 9.51279 14.3154C9.52362 14.3106 9.53426 14.3055 9.54457 14.3001C10.3523 13.9209 11.2149 13.659 12.1085 13.5255V14.7784C10.114 15.1261 8.29302 16.2325 7.06139 17.8595C6.898 18.0754 6.94054 18.3828 7.15633 18.5462C7.24482 18.6131 7.34872 18.6455 7.45178 18.6455C7.60002 18.6455 7.74659 18.5786 7.84295 18.4512C8.8905 17.0673 10.4228 16.1121 12.1085 15.7754V21.2577C12.1085 22.4737 13.0979 23.4631 14.3139 23.4631C15.5299 23.4631 16.5193 22.4737 16.5193 21.2577V16.3174C18.9714 17.4773 20.5757 19.968 20.5757 22.7217C20.5757 26.6269 17.3986 29.804 13.4935 29.804C9.58833 29.804 6.41125 26.6269 6.41125 22.7217C6.41125 21.6853 6.62981 20.6867 7.061 19.7538C7.17457 19.5081 7.06738 19.2168 6.82169 19.1033C6.57586 18.9898 6.28473 19.0968 6.17116 19.3426C5.68003 20.4053 5.43099 21.5422 5.43099 22.7217C5.43099 27.1674 9.04777 30.7842 13.4934 30.7842C17.9391 30.7842 21.5558 27.1674 21.5558 22.7217C21.5558 19.4328 19.5458 16.4724 16.5192 15.2467V13.9267C20.2433 15.2052 22.7922 18.7336 22.7922 22.7217C22.7922 27.8485 18.6208 32.0197 13.4934 32.0197ZM22.9967 26.6371C23.1543 26.2559 23.2897 25.8633 23.4011 25.4608H28.7708V26.6371H26.6121C26.6091 26.6371 26.6062 26.6369 26.6033 26.6369C26.6003 26.6369 26.5974 26.6371 26.5945 26.6371H22.9967ZM26.6033 32.0197C25.3895 32.0197 24.402 31.0322 24.402 29.8183C24.402 28.6075 25.3847 27.622 26.5945 27.6172H26.612C27.8218 27.622 28.8046 28.6075 28.8046 29.8183C28.8046 31.0322 27.8171 32.0197 26.6033 32.0197Z" fill="black"/>
<path d="M26.6033 28.3623C25.8005 28.3623 25.1472 29.0155 25.1472 29.8184C25.1472 30.6212 25.8005 31.2745 26.6033 31.2745C27.4062 31.2745 28.0594 30.6213 28.0594 29.8184C28.0594 29.0155 27.4062 28.3623 26.6033 28.3623ZM26.6033 30.2943C26.3408 30.2943 26.1274 30.0808 26.1274 29.8184C26.1274 29.5559 26.3409 29.3425 26.6033 29.3425C26.8657 29.3425 27.0792 29.556 27.0792 29.8184C27.0792 30.0808 26.8657 30.2943 26.6033 30.2943Z" fill="black"/>
</svg>
